<?xml version="1.0" encoding="UTF-8" standalone="no"?>
<!DOCTYPE svg PUBLIC "-//W3C//DTD SVG 1.1//EN" "http://www.w3.org/Graphics/SVG/1.1/DTD/svg11.dtd">
<svg width="100%" height="100%" viewBox="0 0 1444 1010" version="1.1" xmlns="http://www.w3.org/2000/svg" xmlns:xlink="http://www.w3.org/1999/xlink" xml:space="preserve" xmlns:serif="http://www.serif.com/" style="fill-rule:evenodd;clip-rule:evenodd;stroke-linejoin:round;stroke-miterlimit:1.41421;">
    <g id="Artboard1" transform="matrix(2.2812,0,0,2.63763,0,0)">
        <rect x="0" y="0" width="633" height="382.566" style="fill:none;"/>
        <g>
            <g id="Symb" transform="matrix(0.618291,0,0,0.534741,14.2222,28.6825)">
                <path d="M68.1,35.7C64.5,24.4 57,17.4 48.6,17.4C39.9,17.4 32.3,25.1 28.9,36.3C15.4,39.1 6.4,44.5 6.4,50.9C6.4,55.5 11,59.7 19.4,62.8L18.8,64.7L24.6,63.4L20.6,59L20,60.9C12.6,58.2 8.3,54.5 8.3,50.9C8.3,45.8 16.3,41.1 28.1,38.5C27.2,42.1 26.7,46 26.7,50C26.7,68 36.5,82.6 48.5,82.6C57.9,82.6 66.2,73.6 69.1,60.4L74.1,60.9L69.3,50L62.3,59.7L67.2,60.2C64.4,72.3 56.9,80.6 48.6,80.6C37.7,80.6 28.8,66.9 28.8,50C28.8,45.8 29.4,41.7 30.4,38C36.3,36.9 43,36.2 50,36.2C72.5,36.2 91.6,42.9 91.6,50.8C91.6,54.5 87.3,58.2 79.7,60.9C79.2,61.1 78.9,61.7 79.1,62.2C79.3,62.7 79.9,63 80.4,62.8C88.9,59.7 93.6,55.4 93.6,50.8C93.6,44 83.3,38.3 68.1,35.7ZM31.1,35.8C34.4,26 41,19.4 48.6,19.4C55.8,19.4 62.5,25.6 65.9,35.3C61,34.6 55.6,34.3 50,34.3C43.2,34.3 36.8,34.8 31.1,35.8Z" style="fill:rgb(97,175,239);fill-rule:nonzero;"/>
            </g>
            <g transform="matrix(0.0920677,0,0,0.0796265,27.7435,26.5257)">
                <text x="558.132px" y="437.5px" style="font-family:'Roboto-Regular', 'Roboto';font-size:300px;fill:rgb(78,81,85);">P<tspan x="749.587px 889.334px " y="437.5px 437.5px ">yo</tspan>meca</text>
            </g>
            <g transform="matrix(0.0920677,0,0,0.0796265,61.0694,36.5996)">
                <text x="558.132px" y="437.5px" style="font-family:'Roboto-Regular', 'Roboto';font-size:83.333px;fill:rgb(97,175,239);">Biomechanical analysis</text>
            </g>
        </g>
        <g>
            <g id="Symb1" serif:id="Symb" transform="matrix(-1.0337,-1.09485e-16,1.26592e-16,-0.894014,608.369,370.217)">
                <path d="M99,34L84.623,34C82.685,34 81.526,35.352 80.365,37.542C79.427,36.42 78.668,35.619 77.919,35.615C76.036,35.605 74.405,35.511 72.984,35.511C71.964,34.181 70.978,33.304 69.755,33.28C64.879,33.179 58.777,33.294 58.718,33.296C52.91,33.422 49.428,39.252 46.059,44.993C43.147,49.957 40.136,55 36.262,55C36.254,55 36.244,55 36.236,55C32.182,55 29.465,50.628 26.588,45.513C23.277,39.627 19.854,34 13.479,34L1,34L1,38L5.699,38C9.125,39.813 13.392,47 16.531,53.277C20.677,61.57 24.962,70 32.141,70C32.156,70 32.171,70 32.185,70C33.722,70 35.14,69.54 36.465,68.771C36.579,68.706 36.69,68.623 36.802,68.551C37.548,68.455 38.266,68.292 38.956,68.001C39.008,67.98 38.916,68.021 38.969,67.999C39.032,68.025 39.236,68.163 39.3,68.188C40.333,68.604 41.431,69 42.608,69C42.623,69 42.638,69 42.654,69C44.618,69 46.39,68.119 48.019,66.93C49.466,65.875 50.8,64.348 52.058,62.662C54.405,59.519 56.485,55.483 58.535,51.552C61.398,46.057 64.338,40.398 67.905,37.356C67.979,37.293 68.054,37.222 68.13,37.161C68.527,37.165 68.923,37.165 69.311,37.172C69.878,37.71 70.928,39.366 71.644,40.496C73.667,43.69 75.256,46.227 77.55,46.108C79.314,46.026 80.572,44.752 81.641,43.086C81.66,43.112 81.678,43.138 81.698,43.164C83.76,45.962 85.974,48.483 88.148,48.482C88.21,48.482 88.271,48.48 88.334,48.476C88.587,48.458 88.83,48.423 89.064,48.371C89.229,48.334 89.389,48.288 89.545,48.234C89.72,48.252 89.896,48.259 90.071,48.249C93.855,47.996 95.562,44.243 96.934,40.911C97.451,39.649 97.981,38 98.534,38L99,38L99,34ZM35.899,68.831C34.737,69.429 33.476,69.891 32.156,69.891C25.137,69.891 20.871,61.514 16.761,53.291C13.686,47.139 10.529,41 6.175,38L8.846,38C9.065,38 9.473,37.947 9.687,38.063C14.113,40.457 17.106,46.05 20.204,52.184C24.27,60.234 28.517,68.516 35.703,68.516C35.718,68.516 35.953,68.532 35.969,68.532C36.111,68.532 36.111,68.542 36.25,68.532C36.312,68.529 36.039,68.759 35.899,68.831ZM37.766,67.531C37.084,67.74 36.436,68 35.702,68C35.688,68 35.675,68 35.661,68C29.108,68 25.048,59.967 21.122,52.195C18.266,46.542 15.339,41 11.36,38L13.479,38C17.548,38 20.271,42.446 23.152,47.571C24.858,50.603 26.593,53.49 28.744,55.767C28.849,55.878 28.96,55.94 29.068,56.046C29.156,56.215 29.243,56.367 29.332,56.534C31.761,61.089 34.576,65.29 37.937,67.359C37.956,67.37 37.748,67.521 37.766,67.531ZM38.403,67.002C38.348,66.971 38.29,66.947 38.235,66.915C35.108,65.083 32.589,61.394 30.284,57.192C30.252,57.134 30.221,57.075 30.19,57.017C30.21,57.033 30.229,56.937 30.249,56.954C31.937,58.296 33.883,59 36.23,59C36.247,59 36.264,59 36.281,59C42.399,59 45.988,52.92 49.459,47.004C52.28,42.196 55.197,37.257 58.806,37.179C58.812,37.178 58.869,37.205 58.963,37.201C58.952,37.207 58.941,37.227 58.929,37.234C54.47,39.822 51.054,46.382 47.726,52.767C44.933,58.125 42.078,63.605 38.599,66.829C38.534,66.889 38.468,66.944 38.403,67.002ZM38.804,66.984C38.884,66.91 38.965,66.839 39.045,66.762C42.435,63.482 45.223,58.131 47.954,52.892C51.308,46.456 54.755,39.845 59.234,37.371C59.335,37.315 59.437,37.265 59.539,37.213C59.814,37.206 60.157,37.198 60.556,37.192C60.484,37.242 60.412,37.276 60.341,37.329C56.438,40.203 53.379,46.009 50.395,51.677C46.976,58.169 43.461,64.843 38.804,66.984ZM67.166,37.303C63.703,40.481 60.855,45.943 58.078,51.272C56.043,55.176 53.975,59.145 51.66,62.251C50.399,63.941 49.066,65.306 47.624,66.337C46.101,67.424 44.456,68 42.651,68C42.637,68 42.623,68 42.608,68C41.663,68 40.768,67.914 39.916,67.621C39.864,67.603 39.814,67.614 39.762,67.595C39.804,67.574 39.846,67.574 39.888,67.551C44.522,64.992 47.958,58.491 51.305,52.136C54.54,45.991 57.866,39.689 62.131,37.401C62.31,37.305 62.491,37.231 62.673,37.15C64.076,37.136 65.716,37.131 67.348,37.143C67.287,37.196 67.227,37.248 67.166,37.303ZM77.551,42.036C76.858,41.362 75.699,39.535 74.972,38.385C74.531,37.687 74.118,37.04 73.719,36.449C74.518,36.449 75.386,36.451 76.314,36.455C77.06,36.857 77.997,38.01 79.013,39.404C79.05,39.455 79.088,39.51 79.126,39.562C78.592,40.563 77.973,41.641 77.551,42.036ZM79.769,38.326C79.623,38.61 79.449,38.95 79.26,39.309C79.229,39.267 79.197,39.221 79.166,39.179C78.287,37.977 77.485,36.985 76.779,36.457C77.146,36.458 77.524,36.46 77.913,36.462C78.358,36.464 79.063,37.187 79.848,38.171C79.821,38.224 79.795,38.273 79.769,38.326ZM88.811,48.157C88.65,48.186 88.484,48.207 88.315,48.219C88.26,48.222 88.207,48.224 88.152,48.224C86.082,48.224 83.839,45.637 81.842,42.924C81.823,42.899 81.807,42.874 81.788,42.85C82.011,42.49 82.226,42.115 82.435,41.73C82.473,41.784 82.51,41.836 82.548,41.89C84.487,44.618 86.587,47.361 88.79,48.075C88.847,48.094 88.904,48.107 88.962,48.123C88.912,48.133 88.862,48.147 88.811,48.157ZM91.042,47.109C90.972,47.131 90.902,47.134 90.831,47.155C90.568,47.23 90.292,47.239 90.002,47.259C87.842,47.407 85.235,43.919 83.078,40.877C83.043,40.828 83.008,40.849 82.974,40.799C83.074,40.603 83.175,40.714 83.276,40.518C83.777,39.539 84.512,38 84.967,38L96.186,38C95.723,38 95.294,39.688 94.836,40.8C94.013,42.798 93.067,45.014 91.658,46.552C91.462,46.768 91.257,46.927 91.042,47.109ZM95.982,40.517C94.996,42.911 93.914,45.345 92.137,46.63C91.992,46.734 91.842,46.778 91.689,46.854C91.845,46.693 91.998,46.508 92.142,46.331C93.417,44.778 94.299,42.788 95.073,40.908C95.555,39.739 96.004,38 96.481,38L97.307,38C96.855,38 96.439,39.407 95.982,40.517Z" style="fill:rgb(97,175,239);fill-rule:nonzero;"/>
            </g>
            <g transform="matrix(0.0920677,0,0,0.0796265,437.348,322.625)">
                <text x="558.132px" y="437.5px" style="font-family:'Raleway-Regular', 'Raleway', sans-serif;font-size:300px;fill:rgb(78,81,85);">Py<tspan x="901.932px " y="437.5px ">o</tspan>meca</text>
            </g>
            <g transform="matrix(0.0920677,0,0,0.0796265,474.063,332.796)">
                <text x="558.132px" y="437.5px" style="font-family:'Raleway-Regular', 'Raleway', sans-serif;font-size:83.333px;fill:rgb(97,175,239);">Biomechanical<tspan x="1124.63px " y="437.5px "> </tspan>anal<tspan x="1307.05px 1351.22px " y="437.5px 437.5px ">ys</tspan>is</text>
            </g>
        </g>
        <g>
            <g transform="matrix(0.0920677,0,0,0.0796265,436.658,248.028)">
                <text x="558.132px" y="437.5px" style="font-family:'Montserrat-Regular', 'Montserrat';font-size:300px;fill:rgb(78,81,85);">P<tspan x="771.132px 929.232px 1117.33px 1436.23px " y="437.5px 437.5px 437.5px 437.5px ">yome</tspan>ca</text>
            </g>
            <g transform="matrix(0.0920677,0,0,0.0796265,474.083,258.026)">
                <text x="558.132px" y="437.5px" style="font-family:'Montserrat-Regular', 'Montserrat';font-size:83.333px;fill:rgb(97,175,239);">Biom<tspan x="784.216px 834.549px 880.799px " y="437.5px 437.5px 437.5px ">ech</tspan>anical analy<tspan x="1427.38px " y="437.5px ">s</tspan>is</text>
            </g>
            <g id="Symb2" serif:id="Symb" transform="matrix(-1.09346,-1.15815e-16,1.3391e-16,-0.945698,615.914,297.576)">
                <path d="M99,34L84.623,34C82.685,34 81.526,35.352 80.365,37.542C79.427,36.42 78.668,35.619 77.919,35.615C76.036,35.605 74.405,35.511 72.984,35.511C71.964,34.181 70.978,33.304 69.755,33.28C64.879,33.179 58.777,33.294 58.718,33.296C52.91,33.422 49.428,39.252 46.059,44.993C43.147,49.957 40.136,55 36.262,55C36.254,55 36.244,55 36.236,55C32.182,55 29.465,50.628 26.588,45.513C23.277,39.627 19.854,34 13.479,34L1,34L1,38L5.699,38C9.125,39.813 13.392,47 16.531,53.277C20.677,61.57 24.962,70 32.141,70C32.156,70 32.171,70 32.185,70C33.722,70 35.14,69.54 36.465,68.771C36.579,68.706 36.69,68.623 36.802,68.551C37.548,68.455 38.266,68.292 38.956,68.001C39.008,67.98 38.916,68.021 38.969,67.999C39.032,68.025 39.236,68.163 39.3,68.188C40.333,68.604 41.431,69 42.608,69C42.623,69 42.638,69 42.654,69C44.618,69 46.39,68.119 48.019,66.93C49.466,65.875 50.8,64.348 52.058,62.662C54.405,59.519 56.485,55.483 58.535,51.552C61.398,46.057 64.338,40.398 67.905,37.356C67.979,37.293 68.054,37.222 68.13,37.161C68.527,37.165 68.923,37.165 69.311,37.172C69.878,37.71 70.928,39.366 71.644,40.496C73.667,43.69 75.256,46.227 77.55,46.108C79.314,46.026 80.572,44.752 81.641,43.086C81.66,43.112 81.678,43.138 81.698,43.164C83.76,45.962 85.974,48.483 88.148,48.482C88.21,48.482 88.271,48.48 88.334,48.476C88.587,48.458 88.83,48.423 89.064,48.371C89.229,48.334 89.389,48.288 89.545,48.234C89.72,48.252 89.896,48.259 90.071,48.249C93.855,47.996 95.562,44.243 96.934,40.911C97.451,39.649 97.981,38 98.534,38L99,38L99,34ZM35.899,68.831C34.737,69.429 33.476,69.891 32.156,69.891C25.137,69.891 20.871,61.514 16.761,53.291C13.686,47.139 10.529,41 6.175,38L8.846,38C9.065,38 9.473,37.947 9.687,38.063C14.113,40.457 17.106,46.05 20.204,52.184C24.27,60.234 28.517,68.516 35.703,68.516C35.718,68.516 35.953,68.532 35.969,68.532C36.111,68.532 36.111,68.542 36.25,68.532C36.312,68.529 36.039,68.759 35.899,68.831ZM37.766,67.531C37.084,67.74 36.436,68 35.702,68C35.688,68 35.675,68 35.661,68C29.108,68 25.048,59.967 21.122,52.195C18.266,46.542 15.339,41 11.36,38L13.479,38C17.548,38 20.271,42.446 23.152,47.571C24.858,50.603 26.593,53.49 28.744,55.767C28.849,55.878 28.96,55.94 29.068,56.046C29.156,56.215 29.243,56.367 29.332,56.534C31.761,61.089 34.576,65.29 37.937,67.359C37.956,67.37 37.748,67.521 37.766,67.531ZM38.403,67.002C38.348,66.971 38.29,66.947 38.235,66.915C35.108,65.083 32.589,61.394 30.284,57.192C30.252,57.134 30.221,57.075 30.19,57.017C30.21,57.033 30.229,56.937 30.249,56.954C31.937,58.296 33.883,59 36.23,59C36.247,59 36.264,59 36.281,59C42.399,59 45.988,52.92 49.459,47.004C52.28,42.196 55.197,37.257 58.806,37.179C58.812,37.178 58.869,37.205 58.963,37.201C58.952,37.207 58.941,37.227 58.929,37.234C54.47,39.822 51.054,46.382 47.726,52.767C44.933,58.125 42.078,63.605 38.599,66.829C38.534,66.889 38.468,66.944 38.403,67.002ZM38.804,66.984C38.884,66.91 38.965,66.839 39.045,66.762C42.435,63.482 45.223,58.131 47.954,52.892C51.308,46.456 54.755,39.845 59.234,37.371C59.335,37.315 59.437,37.265 59.539,37.213C59.814,37.206 60.157,37.198 60.556,37.192C60.484,37.242 60.412,37.276 60.341,37.329C56.438,40.203 53.379,46.009 50.395,51.677C46.976,58.169 43.461,64.843 38.804,66.984ZM67.166,37.303C63.703,40.481 60.855,45.943 58.078,51.272C56.043,55.176 53.975,59.145 51.66,62.251C50.399,63.941 49.066,65.306 47.624,66.337C46.101,67.424 44.456,68 42.651,68C42.637,68 42.623,68 42.608,68C41.663,68 40.768,67.914 39.916,67.621C39.864,67.603 39.814,67.614 39.762,67.595C39.804,67.574 39.846,67.574 39.888,67.551C44.522,64.992 47.958,58.491 51.305,52.136C54.54,45.991 57.866,39.689 62.131,37.401C62.31,37.305 62.491,37.231 62.673,37.15C64.076,37.136 65.716,37.131 67.348,37.143C67.287,37.196 67.227,37.248 67.166,37.303ZM77.551,42.036C76.858,41.362 75.699,39.535 74.972,38.385C74.531,37.687 74.118,37.04 73.719,36.449C74.518,36.449 75.386,36.451 76.314,36.455C77.06,36.857 77.997,38.01 79.013,39.404C79.05,39.455 79.088,39.51 79.126,39.562C78.592,40.563 77.973,41.641 77.551,42.036ZM79.769,38.326C79.623,38.61 79.449,38.95 79.26,39.309C79.229,39.267 79.197,39.221 79.166,39.179C78.287,37.977 77.485,36.985 76.779,36.457C77.146,36.458 77.524,36.46 77.913,36.462C78.358,36.464 79.063,37.187 79.848,38.171C79.821,38.224 79.795,38.273 79.769,38.326ZM88.811,48.157C88.65,48.186 88.484,48.207 88.315,48.219C88.26,48.222 88.207,48.224 88.152,48.224C86.082,48.224 83.839,45.637 81.842,42.924C81.823,42.899 81.807,42.874 81.788,42.85C82.011,42.49 82.226,42.115 82.435,41.73C82.473,41.784 82.51,41.836 82.548,41.89C84.487,44.618 86.587,47.361 88.79,48.075C88.847,48.094 88.904,48.107 88.962,48.123C88.912,48.133 88.862,48.147 88.811,48.157ZM91.042,47.109C90.972,47.131 90.902,47.134 90.831,47.155C90.568,47.23 90.292,47.239 90.002,47.259C87.842,47.407 85.235,43.919 83.078,40.877C83.043,40.828 83.008,40.849 82.974,40.799C83.074,40.603 83.175,40.714 83.276,40.518C83.777,39.539 84.512,38 84.967,38L96.186,38C95.723,38 95.294,39.688 94.836,40.8C94.013,42.798 93.067,45.014 91.658,46.552C91.462,46.768 91.257,46.927 91.042,47.109ZM95.982,40.517C94.996,42.911 93.914,45.345 92.137,46.63C91.992,46.734 91.842,46.778 91.689,46.854C91.845,46.693 91.998,46.508 92.142,46.331C93.417,44.778 94.299,42.788 95.073,40.908C95.555,39.739 96.004,38 96.481,38L97.307,38C96.855,38 96.439,39.407 95.982,40.517Z" style="fill:rgb(97,175,239);fill-rule:nonzero;"/>
            </g>
        </g>
        <g>
            <g id="Symb3" serif:id="Symb" transform="matrix(-0.934358,-9.89634e-17,1.14426e-16,-0.808097,597.802,142.872)">
                <path d="M99,34L84.623,34C82.685,34 81.526,35.352 80.365,37.542C79.427,36.42 78.668,35.619 77.919,35.615C76.036,35.605 74.405,35.511 72.984,35.511C71.964,34.181 70.978,33.304 69.755,33.28C64.879,33.179 58.777,33.294 58.718,33.296C52.91,33.422 49.428,39.252 46.059,44.993C43.147,49.957 40.136,55 36.262,55C36.254,55 36.244,55 36.236,55C32.182,55 29.465,50.628 26.588,45.513C23.277,39.627 19.854,34 13.479,34L1,34L1,38L5.699,38C9.125,39.813 13.392,47 16.531,53.277C20.677,61.57 24.962,70 32.141,70C32.156,70 32.171,70 32.185,70C33.722,70 35.14,69.54 36.465,68.771C36.579,68.706 36.69,68.623 36.802,68.551C37.548,68.455 38.266,68.292 38.956,68.001C39.008,67.98 38.916,68.021 38.969,67.999C39.032,68.025 39.236,68.163 39.3,68.188C40.333,68.604 41.431,69 42.608,69C42.623,69 42.638,69 42.654,69C44.618,69 46.39,68.119 48.019,66.93C49.466,65.875 50.8,64.348 52.058,62.662C54.405,59.519 56.485,55.483 58.535,51.552C61.398,46.057 64.338,40.398 67.905,37.356C67.979,37.293 68.054,37.222 68.13,37.161C68.527,37.165 68.923,37.165 69.311,37.172C69.878,37.71 70.928,39.366 71.644,40.496C73.667,43.69 75.256,46.227 77.55,46.108C79.314,46.026 80.572,44.752 81.641,43.086C81.66,43.112 81.678,43.138 81.698,43.164C83.76,45.962 85.974,48.483 88.148,48.482C88.21,48.482 88.271,48.48 88.334,48.476C88.587,48.458 88.83,48.423 89.064,48.371C89.229,48.334 89.389,48.288 89.545,48.234C89.72,48.252 89.896,48.259 90.071,48.249C93.855,47.996 95.562,44.243 96.934,40.911C97.451,39.649 97.981,38 98.534,38L99,38L99,34ZM35.899,68.831C34.737,69.429 33.476,69.891 32.156,69.891C25.137,69.891 20.871,61.514 16.761,53.291C13.686,47.139 10.529,41 6.175,38L8.846,38C9.065,38 9.473,37.947 9.687,38.063C14.113,40.457 17.106,46.05 20.204,52.184C24.27,60.234 28.517,68.516 35.703,68.516C35.718,68.516 35.953,68.532 35.969,68.532C36.111,68.532 36.111,68.542 36.25,68.532C36.312,68.529 36.039,68.759 35.899,68.831ZM37.766,67.531C37.084,67.74 36.436,68 35.702,68C35.688,68 35.675,68 35.661,68C29.108,68 25.048,59.967 21.122,52.195C18.266,46.542 15.339,41 11.36,38L13.479,38C17.548,38 20.271,42.446 23.152,47.571C24.858,50.603 26.593,53.49 28.744,55.767C28.849,55.878 28.96,55.94 29.068,56.046C29.156,56.215 29.243,56.367 29.332,56.534C31.761,61.089 34.576,65.29 37.937,67.359C37.956,67.37 37.748,67.521 37.766,67.531ZM38.403,67.002C38.348,66.971 38.29,66.947 38.235,66.915C35.108,65.083 32.589,61.394 30.284,57.192C30.252,57.134 30.221,57.075 30.19,57.017C30.21,57.033 30.229,56.937 30.249,56.954C31.937,58.296 33.883,59 36.23,59C36.247,59 36.264,59 36.281,59C42.399,59 45.988,52.92 49.459,47.004C52.28,42.196 55.197,37.257 58.806,37.179C58.812,37.178 58.869,37.205 58.963,37.201C58.952,37.207 58.941,37.227 58.929,37.234C54.47,39.822 51.054,46.382 47.726,52.767C44.933,58.125 42.078,63.605 38.599,66.829C38.534,66.889 38.468,66.944 38.403,67.002ZM38.804,66.984C38.884,66.91 38.965,66.839 39.045,66.762C42.435,63.482 45.223,58.131 47.954,52.892C51.308,46.456 54.755,39.845 59.234,37.371C59.335,37.315 59.437,37.265 59.539,37.213C59.814,37.206 60.157,37.198 60.556,37.192C60.484,37.242 60.412,37.276 60.341,37.329C56.438,40.203 53.379,46.009 50.395,51.677C46.976,58.169 43.461,64.843 38.804,66.984ZM67.166,37.303C63.703,40.481 60.855,45.943 58.078,51.272C56.043,55.176 53.975,59.145 51.66,62.251C50.399,63.941 49.066,65.306 47.624,66.337C46.101,67.424 44.456,68 42.651,68C42.637,68 42.623,68 42.608,68C41.663,68 40.768,67.914 39.916,67.621C39.864,67.603 39.814,67.614 39.762,67.595C39.804,67.574 39.846,67.574 39.888,67.551C44.522,64.992 47.958,58.491 51.305,52.136C54.54,45.991 57.866,39.689 62.131,37.401C62.31,37.305 62.491,37.231 62.673,37.15C64.076,37.136 65.716,37.131 67.348,37.143C67.287,37.196 67.227,37.248 67.166,37.303ZM77.551,42.036C76.858,41.362 75.699,39.535 74.972,38.385C74.531,37.687 74.118,37.04 73.719,36.449C74.518,36.449 75.386,36.451 76.314,36.455C77.06,36.857 77.997,38.01 79.013,39.404C79.05,39.455 79.088,39.51 79.126,39.562C78.592,40.563 77.973,41.641 77.551,42.036ZM79.769,38.326C79.623,38.61 79.449,38.95 79.26,39.309C79.229,39.267 79.197,39.221 79.166,39.179C78.287,37.977 77.485,36.985 76.779,36.457C77.146,36.458 77.524,36.46 77.913,36.462C78.358,36.464 79.063,37.187 79.848,38.171C79.821,38.224 79.795,38.273 79.769,38.326ZM88.811,48.157C88.65,48.186 88.484,48.207 88.315,48.219C88.26,48.222 88.207,48.224 88.152,48.224C86.082,48.224 83.839,45.637 81.842,42.924C81.823,42.899 81.807,42.874 81.788,42.85C82.011,42.49 82.226,42.115 82.435,41.73C82.473,41.784 82.51,41.836 82.548,41.89C84.487,44.618 86.587,47.361 88.79,48.075C88.847,48.094 88.904,48.107 88.962,48.123C88.912,48.133 88.862,48.147 88.811,48.157ZM91.042,47.109C90.972,47.131 90.902,47.134 90.831,47.155C90.568,47.23 90.292,47.239 90.002,47.259C87.842,47.407 85.235,43.919 83.078,40.877C83.043,40.828 83.008,40.849 82.974,40.799C83.074,40.603 83.175,40.714 83.276,40.518C83.777,39.539 84.512,38 84.967,38L96.186,38C95.723,38 95.294,39.688 94.836,40.8C94.013,42.798 93.067,45.014 91.658,46.552C91.462,46.768 91.257,46.927 91.042,47.109ZM95.982,40.517C94.996,42.911 93.914,45.345 92.137,46.63C91.992,46.734 91.842,46.778 91.689,46.854C91.845,46.693 91.998,46.508 92.142,46.331C93.417,44.778 94.299,42.788 95.073,40.908C95.555,39.739 96.004,38 96.481,38L97.307,38C96.855,38 96.439,39.407 95.982,40.517Z" style="fill:rgb(97,175,239);fill-rule:nonzero;"/>
            </g>
            <g transform="matrix(0.0920677,0,0,0.0796265,437.127,98.2911)">
                <text x="558.132px" y="437.5px" style="font-family:'Lato-Regular', 'Lato', sans-serif;font-size:300px;fill:rgb(78,81,85);">Py<tspan x="891.132px 1057.93px " y="437.5px 437.5px ">om</tspan>eca</text>
            </g>
            <g transform="matrix(0.0920677,0,0,0.0796265,468.847,107.275)">
                <text x="558.132px" y="437.5px" style="font-family:'Lato-Regular', 'Lato', sans-serif;font-size:83.333px;fill:rgb(97,175,239);">Biomechanical analysis</text>
            </g>
        </g>
        <g>
            <g transform="matrix(0.0920677,0,0,0.0796265,437.527,26.5257)">
                <text x="558.132px" y="437.5px" style="font-family:'Roboto-Regular', 'Roboto';font-size:300px;fill:rgb(78,81,85);">P<tspan x="749.587px 889.334px " y="437.5px 437.5px ">yo</tspan>meca</text>
            </g>
            <g transform="matrix(0.0920677,0,0,0.0796265,470.853,36.5996)">
                <text x="558.132px" y="437.5px" style="font-family:'Roboto-Regular', 'Roboto';font-size:83.333px;fill:rgb(97,175,239);">Biomechanical analysis</text>
            </g>
            <g id="Symb4" serif:id="Symb" transform="matrix(-0.972716,-1.03026e-16,1.19123e-16,-0.841272,602.943,72.3421)">
                <path d="M99,34L84.623,34C82.685,34 81.526,35.352 80.365,37.542C79.427,36.42 78.668,35.619 77.919,35.615C76.036,35.605 74.405,35.511 72.984,35.511C71.964,34.181 70.978,33.304 69.755,33.28C64.879,33.179 58.777,33.294 58.718,33.296C52.91,33.422 49.428,39.252 46.059,44.993C43.147,49.957 40.136,55 36.262,55C36.254,55 36.244,55 36.236,55C32.182,55 29.465,50.628 26.588,45.513C23.277,39.627 19.854,34 13.479,34L1,34L1,38L5.699,38C9.125,39.813 13.392,47 16.531,53.277C20.677,61.57 24.962,70 32.141,70C32.156,70 32.171,70 32.185,70C33.722,70 35.14,69.54 36.465,68.771C36.579,68.706 36.69,68.623 36.802,68.551C37.548,68.455 38.266,68.292 38.956,68.001C39.008,67.98 38.916,68.021 38.969,67.999C39.032,68.025 39.236,68.163 39.3,68.188C40.333,68.604 41.431,69 42.608,69C42.623,69 42.638,69 42.654,69C44.618,69 46.39,68.119 48.019,66.93C49.466,65.875 50.8,64.348 52.058,62.662C54.405,59.519 56.485,55.483 58.535,51.552C61.398,46.057 64.338,40.398 67.905,37.356C67.979,37.293 68.054,37.222 68.13,37.161C68.527,37.165 68.923,37.165 69.311,37.172C69.878,37.71 70.928,39.366 71.644,40.496C73.667,43.69 75.256,46.227 77.55,46.108C79.314,46.026 80.572,44.752 81.641,43.086C81.66,43.112 81.678,43.138 81.698,43.164C83.76,45.962 85.974,48.483 88.148,48.482C88.21,48.482 88.271,48.48 88.334,48.476C88.587,48.458 88.83,48.423 89.064,48.371C89.229,48.334 89.389,48.288 89.545,48.234C89.72,48.252 89.896,48.259 90.071,48.249C93.855,47.996 95.562,44.243 96.934,40.911C97.451,39.649 97.981,38 98.534,38L99,38L99,34ZM35.899,68.831C34.737,69.429 33.476,69.891 32.156,69.891C25.137,69.891 20.871,61.514 16.761,53.291C13.686,47.139 10.529,41 6.175,38L8.846,38C9.065,38 9.473,37.947 9.687,38.063C14.113,40.457 17.106,46.05 20.204,52.184C24.27,60.234 28.517,68.516 35.703,68.516C35.718,68.516 35.953,68.532 35.969,68.532C36.111,68.532 36.111,68.542 36.25,68.532C36.312,68.529 36.039,68.759 35.899,68.831ZM37.766,67.531C37.084,67.74 36.436,68 35.702,68C35.688,68 35.675,68 35.661,68C29.108,68 25.048,59.967 21.122,52.195C18.266,46.542 15.339,41 11.36,38L13.479,38C17.548,38 20.271,42.446 23.152,47.571C24.858,50.603 26.593,53.49 28.744,55.767C28.849,55.878 28.96,55.94 29.068,56.046C29.156,56.215 29.243,56.367 29.332,56.534C31.761,61.089 34.576,65.29 37.937,67.359C37.956,67.37 37.748,67.521 37.766,67.531ZM38.403,67.002C38.348,66.971 38.29,66.947 38.235,66.915C35.108,65.083 32.589,61.394 30.284,57.192C30.252,57.134 30.221,57.075 30.19,57.017C30.21,57.033 30.229,56.937 30.249,56.954C31.937,58.296 33.883,59 36.23,59C36.247,59 36.264,59 36.281,59C42.399,59 45.988,52.92 49.459,47.004C52.28,42.196 55.197,37.257 58.806,37.179C58.812,37.178 58.869,37.205 58.963,37.201C58.952,37.207 58.941,37.227 58.929,37.234C54.47,39.822 51.054,46.382 47.726,52.767C44.933,58.125 42.078,63.605 38.599,66.829C38.534,66.889 38.468,66.944 38.403,67.002ZM38.804,66.984C38.884,66.91 38.965,66.839 39.045,66.762C42.435,63.482 45.223,58.131 47.954,52.892C51.308,46.456 54.755,39.845 59.234,37.371C59.335,37.315 59.437,37.265 59.539,37.213C59.814,37.206 60.157,37.198 60.556,37.192C60.484,37.242 60.412,37.276 60.341,37.329C56.438,40.203 53.379,46.009 50.395,51.677C46.976,58.169 43.461,64.843 38.804,66.984ZM67.166,37.303C63.703,40.481 60.855,45.943 58.078,51.272C56.043,55.176 53.975,59.145 51.66,62.251C50.399,63.941 49.066,65.306 47.624,66.337C46.101,67.424 44.456,68 42.651,68C42.637,68 42.623,68 42.608,68C41.663,68 40.768,67.914 39.916,67.621C39.864,67.603 39.814,67.614 39.762,67.595C39.804,67.574 39.846,67.574 39.888,67.551C44.522,64.992 47.958,58.491 51.305,52.136C54.54,45.991 57.866,39.689 62.131,37.401C62.31,37.305 62.491,37.231 62.673,37.15C64.076,37.136 65.716,37.131 67.348,37.143C67.287,37.196 67.227,37.248 67.166,37.303ZM77.551,42.036C76.858,41.362 75.699,39.535 74.972,38.385C74.531,37.687 74.118,37.04 73.719,36.449C74.518,36.449 75.386,36.451 76.314,36.455C77.06,36.857 77.997,38.01 79.013,39.404C79.05,39.455 79.088,39.51 79.126,39.562C78.592,40.563 77.973,41.641 77.551,42.036ZM79.769,38.326C79.623,38.61 79.449,38.95 79.26,39.309C79.229,39.267 79.197,39.221 79.166,39.179C78.287,37.977 77.485,36.985 76.779,36.457C77.146,36.458 77.524,36.46 77.913,36.462C78.358,36.464 79.063,37.187 79.848,38.171C79.821,38.224 79.795,38.273 79.769,38.326ZM88.811,48.157C88.65,48.186 88.484,48.207 88.315,48.219C88.26,48.222 88.207,48.224 88.152,48.224C86.082,48.224 83.839,45.637 81.842,42.924C81.823,42.899 81.807,42.874 81.788,42.85C82.011,42.49 82.226,42.115 82.435,41.73C82.473,41.784 82.51,41.836 82.548,41.89C84.487,44.618 86.587,47.361 88.79,48.075C88.847,48.094 88.904,48.107 88.962,48.123C88.912,48.133 88.862,48.147 88.811,48.157ZM91.042,47.109C90.972,47.131 90.902,47.134 90.831,47.155C90.568,47.23 90.292,47.239 90.002,47.259C87.842,47.407 85.235,43.919 83.078,40.877C83.043,40.828 83.008,40.849 82.974,40.799C83.074,40.603 83.175,40.714 83.276,40.518C83.777,39.539 84.512,38 84.967,38L96.186,38C95.723,38 95.294,39.688 94.836,40.8C94.013,42.798 93.067,45.014 91.658,46.552C91.462,46.768 91.257,46.927 91.042,47.109ZM95.982,40.517C94.996,42.911 93.914,45.345 92.137,46.63C91.992,46.734 91.842,46.778 91.689,46.854C91.845,46.693 91.998,46.508 92.142,46.331C93.417,44.778 94.299,42.788 95.073,40.908C95.555,39.739 96.004,38 96.481,38L97.307,38C96.855,38 96.439,39.407 95.982,40.517Z" style="fill:rgb(97,175,239);fill-rule:nonzero;"/>
            </g>
        </g>
        <g>
            <g transform="matrix(0.0920677,0,0,0.0796265,256.817,322.625)">
                <text x="558.132px" y="437.5px" style="font-family:'Raleway-Regular', 'Raleway', sans-serif;font-size:300px;fill:rgb(78,81,85);">Py<tspan x="901.932px " y="437.5px ">o</tspan>meca</text>
            </g>
            <g transform="matrix(0.0920677,0,0,0.0796265,293.532,332.796)">
                <text x="558.132px" y="437.5px" style="font-family:'Raleway-Regular', 'Raleway', sans-serif;font-size:83.333px;fill:rgb(97,175,239);">Biomechanical<tspan x="1124.63px " y="437.5px "> </tspan>anal<tspan x="1307.05px 1351.22px " y="437.5px 437.5px ">ys</tspan>is</text>
            </g>
            <g>
                <g id="SvgjsG3442" transform="matrix(0.403932,0,0,0.349348,261.501,334.178)">
                    <circle cx="50" cy="50" r="50" style="fill:rgb(97,175,239);"/>
                </g>
                <g id="SvgjsG3443" transform="matrix(0.342424,0,0,0.296152,264.65,336.912)">
                    <path d="M68.1,35.7C64.5,24.4 57,17.4 48.6,17.4C39.9,17.4 32.3,25.1 28.9,36.3C15.4,39.1 6.4,44.5 6.4,50.9C6.4,55.5 11,59.7 19.4,62.8L18.8,64.7L24.6,63.4L20.6,59L20,60.9C12.6,58.2 8.3,54.5 8.3,50.9C8.3,45.8 16.3,41.1 28.1,38.5C27.2,42.1 26.7,46 26.7,50C26.7,68 36.5,82.6 48.5,82.6C57.9,82.6 66.2,73.6 69.1,60.4L74.1,60.9L69.3,50L62.3,59.7L67.2,60.2C64.4,72.3 56.9,80.6 48.6,80.6C37.7,80.6 28.8,66.9 28.8,50C28.8,45.8 29.4,41.7 30.4,38C36.3,36.9 43,36.2 50,36.2C72.5,36.2 91.6,42.9 91.6,50.8C91.6,54.5 87.3,58.2 79.7,60.9C79.2,61.1 78.9,61.7 79.1,62.2C79.3,62.7 79.9,63 80.4,62.8C88.9,59.7 93.6,55.4 93.6,50.8C93.6,44 83.3,38.3 68.1,35.7ZM31.1,35.8C34.4,26 41,19.4 48.6,19.4C55.8,19.4 62.5,25.6 65.9,35.3C61,34.6 55.6,34.3 50,34.3C43.2,34.3 36.8,34.8 31.1,35.8Z" style="fill:white;fill-rule:nonzero;"/>
                </g>
            </g>
        </g>
        <g>
            <g transform="matrix(0.0920677,0,0,0.0796265,255.247,248.028)">
                <text x="558.132px" y="437.5px" style="font-family:'Montserrat-Regular', 'Montserrat';font-size:300px;fill:rgb(78,81,85);">P<tspan x="771.132px 929.232px 1117.33px 1436.23px " y="437.5px 437.5px 437.5px 437.5px ">yome</tspan>ca</text>
            </g>
            <g transform="matrix(0.0920677,0,0,0.0796265,292.673,258.026)">
                <text x="558.132px" y="437.5px" style="font-family:'Montserrat-Regular', 'Montserrat';font-size:83.333px;fill:rgb(97,175,239);">Biom<tspan x="784.216px 834.549px 880.799px " y="437.5px 437.5px 437.5px ">ech</tspan>anical analy<tspan x="1427.38px " y="437.5px ">s</tspan>is</text>
            </g>
            <g>
                <g id="SvgjsG34421" serif:id="SvgjsG3442" transform="matrix(0.396411,0,0,0.342844,261.374,259.899)">
                    <circle cx="50" cy="50" r="50" style="fill:rgb(97,175,239);"/>
                </g>
                <g id="SvgjsG34431" serif:id="SvgjsG3443" transform="matrix(0.336049,0,0,0.290639,264.465,262.582)">
                    <path d="M68.1,35.7C64.5,24.4 57,17.4 48.6,17.4C39.9,17.4 32.3,25.1 28.9,36.3C15.4,39.1 6.4,44.5 6.4,50.9C6.4,55.5 11,59.7 19.4,62.8L18.8,64.7L24.6,63.4L20.6,59L20,60.9C12.6,58.2 8.3,54.5 8.3,50.9C8.3,45.8 16.3,41.1 28.1,38.5C27.2,42.1 26.7,46 26.7,50C26.7,68 36.5,82.6 48.5,82.6C57.9,82.6 66.2,73.6 69.1,60.4L74.1,60.9L69.3,50L62.3,59.7L67.2,60.2C64.4,72.3 56.9,80.6 48.6,80.6C37.7,80.6 28.8,66.9 28.8,50C28.8,45.8 29.4,41.7 30.4,38C36.3,36.9 43,36.2 50,36.2C72.5,36.2 91.6,42.9 91.6,50.8C91.6,54.5 87.3,58.2 79.7,60.9C79.2,61.1 78.9,61.7 79.1,62.2C79.3,62.7 79.9,63 80.4,62.8C88.9,59.7 93.6,55.4 93.6,50.8C93.6,44 83.3,38.3 68.1,35.7ZM31.1,35.8C34.4,26 41,19.4 48.6,19.4C55.8,19.4 62.5,25.6 65.9,35.3C61,34.6 55.6,34.3 50,34.3C43.2,34.3 36.8,34.8 31.1,35.8Z" style="fill:white;fill-rule:nonzero;"/>
                </g>
            </g>
        </g>
        <g>
            <g transform="matrix(0.0920677,0,0,0.0796265,258.088,170.714)">
                <text x="558.132px" y="437.5px" style="font-family:'OpenSans-Regular', 'Open Sans', sans-serif;font-size:300px;fill:rgb(78,81,85);">Pyomeca</text>
            </g>
            <g transform="matrix(0.0920677,0,0,0.0796265,290.701,181.494)">
                <text x="558.132px" y="437.5px" style="font-family:'OpenSans-Regular', 'Open Sans', sans-serif;font-size:83.333px;fill:rgb(97,175,239);">Biomechanical analysis</text>
            </g>
            <g>
                <g id="SvgjsG34422" serif:id="SvgjsG3442" transform="matrix(0.416972,0,0,0.360626,261.721,181.862)">
                    <circle cx="50" cy="50" r="50" style="fill:rgb(97,175,239);"/>
                </g>
                <g id="SvgjsG34432" serif:id="SvgjsG3443" transform="matrix(0.353479,0,0,0.305713,264.972,184.684)">
                    <path d="M68.1,35.7C64.5,24.4 57,17.4 48.6,17.4C39.9,17.4 32.3,25.1 28.9,36.3C15.4,39.1 6.4,44.5 6.4,50.9C6.4,55.5 11,59.7 19.4,62.8L18.8,64.7L24.6,63.4L20.6,59L20,60.9C12.6,58.2 8.3,54.5 8.3,50.9C8.3,45.8 16.3,41.1 28.1,38.5C27.2,42.1 26.7,46 26.7,50C26.7,68 36.5,82.6 48.5,82.6C57.9,82.6 66.2,73.6 69.1,60.4L74.1,60.9L69.3,50L62.3,59.7L67.2,60.2C64.4,72.3 56.9,80.6 48.6,80.6C37.7,80.6 28.8,66.9 28.8,50C28.8,45.8 29.4,41.7 30.4,38C36.3,36.9 43,36.2 50,36.2C72.5,36.2 91.6,42.9 91.6,50.8C91.6,54.5 87.3,58.2 79.7,60.9C79.2,61.1 78.9,61.7 79.1,62.2C79.3,62.7 79.9,63 80.4,62.8C88.9,59.7 93.6,55.4 93.6,50.8C93.6,44 83.3,38.3 68.1,35.7ZM31.1,35.8C34.4,26 41,19.4 48.6,19.4C55.8,19.4 62.5,25.6 65.9,35.3C61,34.6 55.6,34.3 50,34.3C43.2,34.3 36.8,34.8 31.1,35.8Z" style="fill:white;fill-rule:nonzero;"/>
                </g>
            </g>
        </g>
        <g>
            <g id="Symb5" serif:id="Symb" transform="matrix(0.591168,0,0,0.511283,14.3958,101.018)">
                <path d="M68.1,35.7C64.5,24.4 57,17.4 48.6,17.4C39.9,17.4 32.3,25.1 28.9,36.3C15.4,39.1 6.4,44.5 6.4,50.9C6.4,55.5 11,59.7 19.4,62.8L18.8,64.7L24.6,63.4L20.6,59L20,60.9C12.6,58.2 8.3,54.5 8.3,50.9C8.3,45.8 16.3,41.1 28.1,38.5C27.2,42.1 26.7,46 26.7,50C26.7,68 36.5,82.6 48.5,82.6C57.9,82.6 66.2,73.6 69.1,60.4L74.1,60.9L69.3,50L62.3,59.7L67.2,60.2C64.4,72.3 56.9,80.6 48.6,80.6C37.7,80.6 28.8,66.9 28.8,50C28.8,45.8 29.4,41.7 30.4,38C36.3,36.9 43,36.2 50,36.2C72.5,36.2 91.6,42.9 91.6,50.8C91.6,54.5 87.3,58.2 79.7,60.9C79.2,61.1 78.9,61.7 79.1,62.2C79.3,62.7 79.9,63 80.4,62.8C88.9,59.7 93.6,55.4 93.6,50.8C93.6,44 83.3,38.3 68.1,35.7ZM31.1,35.8C34.4,26 41,19.4 48.6,19.4C55.8,19.4 62.5,25.6 65.9,35.3C61,34.6 55.6,34.3 50,34.3C43.2,34.3 36.8,34.8 31.1,35.8Z" style="fill:rgb(97,175,239);fill-rule:nonzero;"/>
            </g>
            <g transform="matrix(0.0920677,0,0,0.0796265,24.4313,98.2911)">
                <text x="558.132px" y="437.5px" style="font-family:'Lato-Regular', 'Lato', sans-serif;font-size:300px;fill:rgb(78,81,85);">Py<tspan x="891.132px 1057.93px " y="437.5px 437.5px ">om</tspan>eca</text>
            </g>
            <g transform="matrix(0.0920677,0,0,0.0796265,56.1509,107.275)">
                <text x="558.132px" y="437.5px" style="font-family:'Lato-Regular', 'Lato', sans-serif;font-size:83.333px;fill:rgb(97,175,239);">Biomechanical analysis</text>
            </g>
        </g>
        <g>
            <g transform="matrix(0.0920677,0,0,0.0796265,257.129,26.5257)">
                <text x="558.132px" y="437.5px" style="font-family:'Roboto-Regular', 'Roboto';font-size:300px;fill:rgb(78,81,85);">P<tspan x="749.587px 889.334px " y="437.5px 437.5px ">yo</tspan>meca</text>
            </g>
            <g transform="matrix(0.0920677,0,0,0.0796265,290.455,36.5996)">
                <text x="558.132px" y="437.5px" style="font-family:'Roboto-Regular', 'Roboto';font-size:83.333px;fill:rgb(97,175,239);">Biomechanical analysis</text>
            </g>
            <g id="SvgjsG34423" serif:id="SvgjsG3442" transform="matrix(0.402207,0,0,0.348295,261.806,38.0226)">
                <circle cx="50" cy="50" r="50" style="fill:rgb(97,175,239);"/>
            </g>
            <g id="SvgjsG34433" serif:id="SvgjsG3443" transform="matrix(0.340962,0,0,0.295259,264.943,40.7484)">
                <path d="M68.1,35.7C64.5,24.4 57,17.4 48.6,17.4C39.9,17.4 32.3,25.1 28.9,36.3C15.4,39.1 6.4,44.5 6.4,50.9C6.4,55.5 11,59.7 19.4,62.8L18.8,64.7L24.6,63.4L20.6,59L20,60.9C12.6,58.2 8.3,54.5 8.3,50.9C8.3,45.8 16.3,41.1 28.1,38.5C27.2,42.1 26.7,46 26.7,50C26.7,68 36.5,82.6 48.5,82.6C57.9,82.6 66.2,73.6 69.1,60.4L74.1,60.9L69.3,50L62.3,59.7L67.2,60.2C64.4,72.3 56.9,80.6 48.6,80.6C37.7,80.6 28.8,66.9 28.8,50C28.8,45.8 29.4,41.7 30.4,38C36.3,36.9 43,36.2 50,36.2C72.5,36.2 91.6,42.9 91.6,50.8C91.6,54.5 87.3,58.2 79.7,60.9C79.2,61.1 78.9,61.7 79.1,62.2C79.3,62.7 79.9,63 80.4,62.8C88.9,59.7 93.6,55.4 93.6,50.8C93.6,44 83.3,38.3 68.1,35.7ZM31.1,35.8C34.4,26 41,19.4 48.6,19.4C55.8,19.4 62.5,25.6 65.9,35.3C61,34.6 55.6,34.3 50,34.3C43.2,34.3 36.8,34.8 31.1,35.8Z" style="fill:white;fill-rule:nonzero;"/>
            </g>
        </g>
        <g>
            <g transform="matrix(0.0920677,0,0,0.0796265,254.411,98.2911)">
                <text x="558.132px" y="437.5px" style="font-family:'Lato-Regular', 'Lato', sans-serif;font-size:300px;fill:rgb(78,81,85);">Py<tspan x="891.132px 1057.93px " y="437.5px 437.5px ">om</tspan>eca</text>
            </g>
            <g transform="matrix(0.0920677,0,0,0.0796265,286.13,107.275)">
                <text x="558.132px" y="437.5px" style="font-family:'Lato-Regular', 'Lato', sans-serif;font-size:83.333px;fill:rgb(97,175,239);">Biomechanical analysis</text>
            </g>
            <g>
                <g id="SvgjsG34424" serif:id="SvgjsG3442" transform="matrix(0.384956,0,0,0.333356,261.213,109.914)">
                    <circle cx="50" cy="50" r="50" style="fill:rgb(97,175,239);"/>
                </g>
                <g id="SvgjsG34434" serif:id="SvgjsG3443" transform="matrix(0.326339,0,0,0.282596,264.214,112.523)">
                    <path d="M68.1,35.7C64.5,24.4 57,17.4 48.6,17.4C39.9,17.4 32.3,25.1 28.9,36.3C15.4,39.1 6.4,44.5 6.4,50.9C6.4,55.5 11,59.7 19.4,62.8L18.8,64.7L24.6,63.4L20.6,59L20,60.9C12.6,58.2 8.3,54.5 8.3,50.9C8.3,45.8 16.3,41.1 28.1,38.5C27.2,42.1 26.7,46 26.7,50C26.7,68 36.5,82.6 48.5,82.6C57.9,82.6 66.2,73.6 69.1,60.4L74.1,60.9L69.3,50L62.3,59.7L67.2,60.2C64.4,72.3 56.9,80.6 48.6,80.6C37.7,80.6 28.8,66.9 28.8,50C28.8,45.8 29.4,41.7 30.4,38C36.3,36.9 43,36.2 50,36.2C72.5,36.2 91.6,42.9 91.6,50.8C91.6,54.5 87.3,58.2 79.7,60.9C79.2,61.1 78.9,61.7 79.1,62.2C79.3,62.7 79.9,63 80.4,62.8C88.9,59.7 93.6,55.4 93.6,50.8C93.6,44 83.3,38.3 68.1,35.7ZM31.1,35.8C34.4,26 41,19.4 48.6,19.4C55.8,19.4 62.5,25.6 65.9,35.3C61,34.6 55.6,34.3 50,34.3C43.2,34.3 36.8,34.8 31.1,35.8Z" style="fill:white;fill-rule:nonzero;"/>
                </g>
            </g>
        </g>
        <g>
            <g id="Symb6" serif:id="Symb" transform="matrix(-1.00003,-1.05919e-16,1.22468e-16,-0.864896,604.171,217.245)">
                <path d="M99,34L84.623,34C82.685,34 81.526,35.352 80.365,37.542C79.427,36.42 78.668,35.619 77.919,35.615C76.036,35.605 74.405,35.511 72.984,35.511C71.964,34.181 70.978,33.304 69.755,33.28C64.879,33.179 58.777,33.294 58.718,33.296C52.91,33.422 49.428,39.252 46.059,44.993C43.147,49.957 40.136,55 36.262,55C36.254,55 36.244,55 36.236,55C32.182,55 29.465,50.628 26.588,45.513C23.277,39.627 19.854,34 13.479,34L1,34L1,38L5.699,38C9.125,39.813 13.392,47 16.531,53.277C20.677,61.57 24.962,70 32.141,70C32.156,70 32.171,70 32.185,70C33.722,70 35.14,69.54 36.465,68.771C36.579,68.706 36.69,68.623 36.802,68.551C37.548,68.455 38.266,68.292 38.956,68.001C39.008,67.98 38.916,68.021 38.969,67.999C39.032,68.025 39.236,68.163 39.3,68.188C40.333,68.604 41.431,69 42.608,69C42.623,69 42.638,69 42.654,69C44.618,69 46.39,68.119 48.019,66.93C49.466,65.875 50.8,64.348 52.058,62.662C54.405,59.519 56.485,55.483 58.535,51.552C61.398,46.057 64.338,40.398 67.905,37.356C67.979,37.293 68.054,37.222 68.13,37.161C68.527,37.165 68.923,37.165 69.311,37.172C69.878,37.71 70.928,39.366 71.644,40.496C73.667,43.69 75.256,46.227 77.55,46.108C79.314,46.026 80.572,44.752 81.641,43.086C81.66,43.112 81.678,43.138 81.698,43.164C83.76,45.962 85.974,48.483 88.148,48.482C88.21,48.482 88.271,48.48 88.334,48.476C88.587,48.458 88.83,48.423 89.064,48.371C89.229,48.334 89.389,48.288 89.545,48.234C89.72,48.252 89.896,48.259 90.071,48.249C93.855,47.996 95.562,44.243 96.934,40.911C97.451,39.649 97.981,38 98.534,38L99,38L99,34ZM35.899,68.831C34.737,69.429 33.476,69.891 32.156,69.891C25.137,69.891 20.871,61.514 16.761,53.291C13.686,47.139 10.529,41 6.175,38L8.846,38C9.065,38 9.473,37.947 9.687,38.063C14.113,40.457 17.106,46.05 20.204,52.184C24.27,60.234 28.517,68.516 35.703,68.516C35.718,68.516 35.953,68.532 35.969,68.532C36.111,68.532 36.111,68.542 36.25,68.532C36.312,68.529 36.039,68.759 35.899,68.831ZM37.766,67.531C37.084,67.74 36.436,68 35.702,68C35.688,68 35.675,68 35.661,68C29.108,68 25.048,59.967 21.122,52.195C18.266,46.542 15.339,41 11.36,38L13.479,38C17.548,38 20.271,42.446 23.152,47.571C24.858,50.603 26.593,53.49 28.744,55.767C28.849,55.878 28.96,55.94 29.068,56.046C29.156,56.215 29.243,56.367 29.332,56.534C31.761,61.089 34.576,65.29 37.937,67.359C37.956,67.37 37.748,67.521 37.766,67.531ZM38.403,67.002C38.348,66.971 38.29,66.947 38.235,66.915C35.108,65.083 32.589,61.394 30.284,57.192C30.252,57.134 30.221,57.075 30.19,57.017C30.21,57.033 30.229,56.937 30.249,56.954C31.937,58.296 33.883,59 36.23,59C36.247,59 36.264,59 36.281,59C42.399,59 45.988,52.92 49.459,47.004C52.28,42.196 55.197,37.257 58.806,37.179C58.812,37.178 58.869,37.205 58.963,37.201C58.952,37.207 58.941,37.227 58.929,37.234C54.47,39.822 51.054,46.382 47.726,52.767C44.933,58.125 42.078,63.605 38.599,66.829C38.534,66.889 38.468,66.944 38.403,67.002ZM38.804,66.984C38.884,66.91 38.965,66.839 39.045,66.762C42.435,63.482 45.223,58.131 47.954,52.892C51.308,46.456 54.755,39.845 59.234,37.371C59.335,37.315 59.437,37.265 59.539,37.213C59.814,37.206 60.157,37.198 60.556,37.192C60.484,37.242 60.412,37.276 60.341,37.329C56.438,40.203 53.379,46.009 50.395,51.677C46.976,58.169 43.461,64.843 38.804,66.984ZM67.166,37.303C63.703,40.481 60.855,45.943 58.078,51.272C56.043,55.176 53.975,59.145 51.66,62.251C50.399,63.941 49.066,65.306 47.624,66.337C46.101,67.424 44.456,68 42.651,68C42.637,68 42.623,68 42.608,68C41.663,68 40.768,67.914 39.916,67.621C39.864,67.603 39.814,67.614 39.762,67.595C39.804,67.574 39.846,67.574 39.888,67.551C44.522,64.992 47.958,58.491 51.305,52.136C54.54,45.991 57.866,39.689 62.131,37.401C62.31,37.305 62.491,37.231 62.673,37.15C64.076,37.136 65.716,37.131 67.348,37.143C67.287,37.196 67.227,37.248 67.166,37.303ZM77.551,42.036C76.858,41.362 75.699,39.535 74.972,38.385C74.531,37.687 74.118,37.04 73.719,36.449C74.518,36.449 75.386,36.451 76.314,36.455C77.06,36.857 77.997,38.01 79.013,39.404C79.05,39.455 79.088,39.51 79.126,39.562C78.592,40.563 77.973,41.641 77.551,42.036ZM79.769,38.326C79.623,38.61 79.449,38.95 79.26,39.309C79.229,39.267 79.197,39.221 79.166,39.179C78.287,37.977 77.485,36.985 76.779,36.457C77.146,36.458 77.524,36.46 77.913,36.462C78.358,36.464 79.063,37.187 79.848,38.171C79.821,38.224 79.795,38.273 79.769,38.326ZM88.811,48.157C88.65,48.186 88.484,48.207 88.315,48.219C88.26,48.222 88.207,48.224 88.152,48.224C86.082,48.224 83.839,45.637 81.842,42.924C81.823,42.899 81.807,42.874 81.788,42.85C82.011,42.49 82.226,42.115 82.435,41.73C82.473,41.784 82.51,41.836 82.548,41.89C84.487,44.618 86.587,47.361 88.79,48.075C88.847,48.094 88.904,48.107 88.962,48.123C88.912,48.133 88.862,48.147 88.811,48.157ZM91.042,47.109C90.972,47.131 90.902,47.134 90.831,47.155C90.568,47.23 90.292,47.239 90.002,47.259C87.842,47.407 85.235,43.919 83.078,40.877C83.043,40.828 83.008,40.849 82.974,40.799C83.074,40.603 83.175,40.714 83.276,40.518C83.777,39.539 84.512,38 84.967,38L96.186,38C95.723,38 95.294,39.688 94.836,40.8C94.013,42.798 93.067,45.014 91.658,46.552C91.462,46.768 91.257,46.927 91.042,47.109ZM95.982,40.517C94.996,42.911 93.914,45.345 92.137,46.63C91.992,46.734 91.842,46.778 91.689,46.854C91.845,46.693 91.998,46.508 92.142,46.331C93.417,44.778 94.299,42.788 95.073,40.908C95.555,39.739 96.004,38 96.481,38L97.307,38C96.855,38 96.439,39.407 95.982,40.517Z" style="fill:rgb(97,175,239);fill-rule:nonzero;"/>
            </g>
            <g transform="matrix(0.0920677,0,0,0.0796265,437.096,170.714)">
                <text x="558.132px" y="437.5px" style="font-family:'OpenSans-Regular', 'Open Sans', sans-serif;font-size:300px;fill:rgb(78,81,85);">Pyomeca</text>
            </g>
            <g transform="matrix(0.0920677,0,0,0.0796265,469.708,181.494)">
                <text x="558.132px" y="437.5px" style="font-family:'OpenSans-Regular', 'Open Sans', sans-serif;font-size:83.333px;fill:rgb(97,175,239);">Biomechanical analysis</text>
            </g>
        </g>
        <g>
            <g id="Symb7" serif:id="Symb" transform="matrix(0.639528,0,0,0.553108,14.0863,172.238)">
                <path d="M68.1,35.7C64.5,24.4 57,17.4 48.6,17.4C39.9,17.4 32.3,25.1 28.9,36.3C15.4,39.1 6.4,44.5 6.4,50.9C6.4,55.5 11,59.7 19.4,62.8L18.8,64.7L24.6,63.4L20.6,59L20,60.9C12.6,58.2 8.3,54.5 8.3,50.9C8.3,45.8 16.3,41.1 28.1,38.5C27.2,42.1 26.7,46 26.7,50C26.7,68 36.5,82.6 48.5,82.6C57.9,82.6 66.2,73.6 69.1,60.4L74.1,60.9L69.3,50L62.3,59.7L67.2,60.2C64.4,72.3 56.9,80.6 48.6,80.6C37.7,80.6 28.8,66.9 28.8,50C28.8,45.8 29.4,41.7 30.4,38C36.3,36.9 43,36.2 50,36.2C72.5,36.2 91.6,42.9 91.6,50.8C91.6,54.5 87.3,58.2 79.7,60.9C79.2,61.1 78.9,61.7 79.1,62.2C79.3,62.7 79.9,63 80.4,62.8C88.9,59.7 93.6,55.4 93.6,50.8C93.6,44 83.3,38.3 68.1,35.7ZM31.1,35.8C34.4,26 41,19.4 48.6,19.4C55.8,19.4 62.5,25.6 65.9,35.3C61,34.6 55.6,34.3 50,34.3C43.2,34.3 36.8,34.8 31.1,35.8Z" style="fill:rgb(97,175,239);fill-rule:nonzero;"/>
            </g>
            <g transform="matrix(0.0920677,0,0,0.0796265,28.6166,170.714)">
                <text x="558.132px" y="437.5px" style="font-family:'OpenSans-Regular', 'Open Sans', sans-serif;font-size:300px;fill:rgb(78,81,85);">Pyomeca</text>
            </g>
            <g transform="matrix(0.0920677,0,0,0.0796265,61.2292,181.494)">
                <text x="558.132px" y="437.5px" style="font-family:'OpenSans-Regular', 'Open Sans', sans-serif;font-size:83.333px;fill:rgb(97,175,239);">Biomechanical analysis</text>
            </g>
        </g>
        <g>
            <g id="Symb8" serif:id="Symb" transform="matrix(0.607993,0,0,0.525834,14.2881,250.749)">
                <path d="M68.1,35.7C64.5,24.4 57,17.4 48.6,17.4C39.9,17.4 32.3,25.1 28.9,36.3C15.4,39.1 6.4,44.5 6.4,50.9C6.4,55.5 11,59.7 19.4,62.8L18.8,64.7L24.6,63.4L20.6,59L20,60.9C12.6,58.2 8.3,54.5 8.3,50.9C8.3,45.8 16.3,41.1 28.1,38.5C27.2,42.1 26.7,46 26.7,50C26.7,68 36.5,82.6 48.5,82.6C57.9,82.6 66.2,73.6 69.1,60.4L74.1,60.9L69.3,50L62.3,59.7L67.2,60.2C64.4,72.3 56.9,80.6 48.6,80.6C37.7,80.6 28.8,66.9 28.8,50C28.8,45.8 29.4,41.7 30.4,38C36.3,36.9 43,36.2 50,36.2C72.5,36.2 91.6,42.9 91.6,50.8C91.6,54.5 87.3,58.2 79.7,60.9C79.2,61.1 78.9,61.7 79.1,62.2C79.3,62.7 79.9,63 80.4,62.8C88.9,59.7 93.6,55.4 93.6,50.8C93.6,44 83.3,38.3 68.1,35.7ZM31.1,35.8C34.4,26 41,19.4 48.6,19.4C55.8,19.4 62.5,25.6 65.9,35.3C61,34.6 55.6,34.3 50,34.3C43.2,34.3 36.8,34.8 31.1,35.8Z" style="fill:rgb(97,175,239);fill-rule:nonzero;"/>
            </g>
            <g transform="matrix(0.0920677,0,0,0.0796265,25.4289,248.028)">
                <text x="558.132px" y="437.5px" style="font-family:'Montserrat-Regular', 'Montserrat';font-size:300px;fill:rgb(78,81,85);">P<tspan x="771.132px 929.232px 1117.33px 1436.23px " y="437.5px 437.5px 437.5px 437.5px ">yome</tspan>ca</text>
            </g>
            <g transform="matrix(0.0920677,0,0,0.0796265,62.8544,258.026)">
                <text x="558.132px" y="437.5px" style="font-family:'Montserrat-Regular', 'Montserrat';font-size:83.333px;fill:rgb(97,175,239);">Biom<tspan x="784.216px 834.549px 880.799px " y="437.5px 437.5px 437.5px ">ech</tspan>anical analy<tspan x="1427.38px " y="437.5px ">s</tspan>is</text>
            </g>
        </g>
        <g>
            <g id="Symb9" serif:id="Symb" transform="matrix(0.619527,0,0,0.53581,14.2143,324.855)">
                <path d="M68.1,35.7C64.5,24.4 57,17.4 48.6,17.4C39.9,17.4 32.3,25.1 28.9,36.3C15.4,39.1 6.4,44.5 6.4,50.9C6.4,55.5 11,59.7 19.4,62.8L18.8,64.7L24.6,63.4L20.6,59L20,60.9C12.6,58.2 8.3,54.5 8.3,50.9C8.3,45.8 16.3,41.1 28.1,38.5C27.2,42.1 26.7,46 26.7,50C26.7,68 36.5,82.6 48.5,82.6C57.9,82.6 66.2,73.6 69.1,60.4L74.1,60.9L69.3,50L62.3,59.7L67.2,60.2C64.4,72.3 56.9,80.6 48.6,80.6C37.7,80.6 28.8,66.9 28.8,50C28.8,45.8 29.4,41.7 30.4,38C36.3,36.9 43,36.2 50,36.2C72.5,36.2 91.6,42.9 91.6,50.8C91.6,54.5 87.3,58.2 79.7,60.9C79.2,61.1 78.9,61.7 79.1,62.2C79.3,62.7 79.9,63 80.4,62.8C88.9,59.7 93.6,55.4 93.6,50.8C93.6,44 83.3,38.3 68.1,35.7ZM31.1,35.8C34.4,26 41,19.4 48.6,19.4C55.8,19.4 62.5,25.6 65.9,35.3C61,34.6 55.6,34.3 50,34.3C43.2,34.3 36.8,34.8 31.1,35.8Z" style="fill:rgb(97,175,239);fill-rule:nonzero;"/>
            </g>
            <g transform="matrix(0.0920677,0,0,0.0796265,27.1252,322.625)">
                <text x="558.132px" y="437.5px" style="font-family:'Raleway-Regular', 'Raleway', sans-serif;font-size:300px;fill:rgb(78,81,85);">Py<tspan x="901.932px " y="437.5px ">o</tspan>meca</text>
            </g>
            <g transform="matrix(0.0920677,0,0,0.0796265,63.8402,332.796)">
                <text x="558.132px" y="437.5px" style="font-family:'Raleway-Regular', 'Raleway', sans-serif;font-size:83.333px;fill:rgb(97,175,239);">Biomechanical<tspan x="1124.63px " y="437.5px "> </tspan>anal<tspan x="1307.05px 1351.22px " y="437.5px 437.5px ">ys</tspan>is</text>
            </g>
        </g>
    </g>
</svg>
