<?xml version="1.0" encoding="UTF-8" standalone="no"?>
<!DOCTYPE svg PUBLIC "-//W3C//DTD SVG 1.1//EN" "http://www.w3.org/Graphics/SVG/1.1/DTD/svg11.dtd">
<svg width="100%" height="100%" viewBox="0 0 400 100" version="1.1" xmlns="http://www.w3.org/2000/svg" xmlns:xlink="http://www.w3.org/1999/xlink" xml:space="preserve" xmlns:serif="http://www.serif.com/" style="fill-rule:evenodd;clip-rule:evenodd;stroke-linejoin:round;stroke-miterlimit:1.41421;">
    <g transform="matrix(2.2812,0,0,2.63763,-582.319,-477.243)">
        <g transform="matrix(0.0920677,0,0,0.0796265,258.088,170.714)">
            <path d="M581.277,437.5L581.277,222.754L662.283,222.754C676.541,222.754 687.429,223.438 694.949,224.805C705.496,226.563 714.334,229.907 721.462,234.839C728.591,239.771 734.329,246.68 738.674,255.566C743.02,264.453 745.193,274.219 745.193,284.863C745.193,303.125 739.382,318.579 727.761,331.226C716.14,343.872 695.144,350.195 664.773,350.195L609.695,350.195L609.695,437.5L581.277,437.5ZM609.695,324.854L665.212,324.854C683.572,324.854 696.609,321.436 704.324,314.6C712.039,307.764 715.896,298.145 715.896,285.742C715.896,276.758 713.625,269.067 709.084,262.671C704.543,256.274 698.562,252.051 691.14,250C686.355,248.73 677.517,248.096 664.626,248.096L609.695,248.096L609.695,324.854Z" style="fill:rgb(78,81,85);fill-rule:nonzero;"/>
            <path d="M776.834,497.412L773.904,472.656C779.666,474.219 784.695,475 788.992,475C794.851,475 799.539,474.023 803.054,472.07C806.57,470.117 809.451,467.383 811.697,463.867C813.357,461.23 816.042,454.688 819.753,444.238C820.242,442.773 821.023,440.625 822.097,437.793L763.064,281.934L791.482,281.934L823.855,372.022C828.054,383.447 831.814,395.459 835.134,408.057C838.162,395.947 841.775,384.131 845.974,372.607L879.226,281.934L905.593,281.934L846.414,440.137C840.066,457.227 835.134,468.994 831.619,475.439C826.931,484.131 821.56,490.503 815.505,494.556C809.451,498.608 802.224,500.635 793.826,500.635C788.748,500.635 783.084,499.561 776.834,497.412Z" style="fill:rgb(78,81,85);fill-rule:nonzero;"/>
            <path d="M918.191,359.717C918.191,330.908 926.199,309.57 942.214,295.703C955.593,284.18 971.902,278.418 991.14,278.418C1012.53,278.418 1030.01,285.425 1043.58,299.439C1057.16,313.452 1063.94,332.813 1063.94,357.52C1063.94,377.539 1060.94,393.286 1054.93,404.761C1048.93,416.235 1040.19,425.147 1028.71,431.494C1017.24,437.842 1004.71,441.016 991.14,441.016C969.363,441.016 951.76,434.033 938.333,420.068C924.905,406.104 918.191,385.986 918.191,359.717ZM945.291,359.717C945.291,379.639 949.636,394.556 958.328,404.468C967.019,414.38 977.957,419.336 991.14,419.336C1004.23,419.336 1015.12,414.355 1023.81,404.395C1032.5,394.434 1036.84,379.248 1036.84,358.838C1036.84,339.6 1032.47,325.024 1023.73,315.112C1014.99,305.2 1004.13,300.244 991.14,300.244C977.957,300.244 967.019,305.176 958.328,315.039C949.636,324.902 945.291,339.795 945.291,359.717Z" style="fill:rgb(78,81,85);fill-rule:nonzero;"/>
            <path d="M1094.85,437.5L1094.85,281.934L1118.43,281.934L1118.43,303.76C1123.32,296.143 1129.81,290.015 1137.92,285.376C1146.02,280.737 1155.25,278.418 1165.6,278.418C1177.13,278.418 1186.58,280.811 1193.95,285.596C1201.32,290.381 1206.52,297.07 1209.55,305.664C1221.85,287.5 1237.87,278.418 1257.6,278.418C1273.03,278.418 1284.89,282.69 1293.19,291.235C1301.49,299.78 1305.64,312.939 1305.64,330.713L1305.64,437.5L1279.42,437.5L1279.42,339.502C1279.42,328.955 1278.57,321.362 1276.86,316.724C1275.15,312.085 1272.05,308.35 1267.56,305.518C1263.06,302.686 1257.79,301.27 1251.74,301.27C1240.8,301.27 1231.72,304.907 1224.49,312.183C1217.26,319.458 1213.65,331.104 1213.65,347.119L1213.65,437.5L1187.28,437.5L1187.28,336.426C1187.28,324.707 1185.13,315.918 1180.84,310.059C1176.54,304.199 1169.51,301.27 1159.74,301.27C1152.32,301.27 1145.46,303.223 1139.16,307.129C1132.86,311.035 1128.3,316.748 1125.47,324.268C1122.63,331.787 1121.22,342.627 1121.22,356.787L1121.22,437.5L1094.85,437.5Z" style="fill:rgb(78,81,85);fill-rule:nonzero;"/>
            <path d="M1451.25,387.402L1478.49,390.772C1474.2,406.689 1466.24,419.043 1454.62,427.832C1443,436.621 1428.15,441.016 1410.09,441.016C1387.33,441.016 1369.29,434.009 1355.96,419.995C1342.63,405.981 1335.96,386.328 1335.96,361.035C1335.96,334.863 1342.7,314.551 1356.18,300.098C1369.66,285.645 1387.14,278.418 1408.62,278.418C1429.42,278.418 1446.41,285.498 1459.6,299.658C1472.78,313.818 1479.37,333.74 1479.37,359.424C1479.37,360.986 1479.32,363.33 1479.23,366.455L1363.21,366.455C1364.19,383.545 1369.02,396.631 1377.71,405.713C1386.4,414.795 1397.24,419.336 1410.23,419.336C1419.9,419.336 1428.15,416.797 1434.99,411.719C1441.82,406.641 1447.24,398.535 1451.25,387.402ZM1364.67,344.775L1451.54,344.775C1450.37,331.689 1447.05,321.875 1441.58,315.332C1433.18,305.176 1422.29,300.098 1408.91,300.098C1396.8,300.098 1386.62,304.15 1378.37,312.256C1370.12,320.361 1365.55,331.201 1364.67,344.775Z" style="fill:rgb(78,81,85);fill-rule:nonzero;"/>
            <path d="M1613.11,380.518L1639.04,383.887C1636.21,401.758 1628.96,415.747 1617.29,425.855C1605.62,435.962 1591.29,441.016 1574.29,441.016C1553.01,441.016 1535.89,434.058 1522.95,420.142C1510.01,406.226 1503.54,386.279 1503.54,360.303C1503.54,343.506 1506.33,328.809 1511.89,316.211C1517.46,303.613 1525.93,294.165 1537.31,287.866C1548.68,281.567 1561.06,278.418 1574.44,278.418C1591.34,278.418 1605.15,282.69 1615.9,291.235C1626.64,299.78 1633.52,311.914 1636.55,327.637L1610.92,331.592C1608.47,321.143 1604.15,313.281 1597.95,308.008C1591.75,302.734 1584.26,300.098 1575.47,300.098C1562.18,300.098 1551.39,304.858 1543.09,314.38C1534.79,323.901 1530.64,338.965 1530.64,359.57C1530.64,380.469 1534.65,395.654 1542.65,405.127C1550.66,414.6 1561.11,419.336 1574,419.336C1584.35,419.336 1593,416.162 1599.93,409.814C1606.86,403.467 1611.26,393.701 1613.11,380.518Z" style="fill:rgb(78,81,85);fill-rule:nonzero;"/>
            <path d="M1763.11,418.311C1753.35,426.611 1743.95,432.471 1734.91,435.889C1725.88,439.307 1716.19,441.016 1705.84,441.016C1688.75,441.016 1675.61,436.841 1666.43,428.491C1657.25,420.142 1652.66,409.473 1652.66,396.484C1652.66,388.867 1654.4,381.909 1657.86,375.61C1661.33,369.312 1665.87,364.258 1671.49,360.449C1677.1,356.641 1683.42,353.76 1690.46,351.807C1695.63,350.439 1703.44,349.121 1713.89,347.852C1735.18,345.313 1750.86,342.285 1760.92,338.77C1761.01,335.156 1761.06,332.861 1761.06,331.885C1761.06,321.143 1758.57,313.574 1753.59,309.18C1746.85,303.223 1736.84,300.244 1723.56,300.244C1711.16,300.244 1702,302.417 1696.1,306.763C1690.19,311.108 1685.82,318.799 1682.99,329.834L1657.2,326.318C1659.55,315.283 1663.41,306.372 1668.78,299.585C1674.15,292.798 1681.91,287.573 1692.07,283.911C1702.22,280.249 1713.99,278.418 1727.37,278.418C1740.65,278.418 1751.44,279.98 1759.74,283.105C1768.04,286.23 1774.15,290.161 1778.05,294.897C1781.96,299.634 1784.69,305.615 1786.26,312.842C1787.14,317.334 1787.58,325.439 1787.58,337.158L1787.58,372.314C1787.58,396.826 1788.14,412.329 1789.26,418.823C1790.38,425.317 1792.61,431.543 1795.92,437.5L1768.39,437.5C1765.65,432.031 1763.89,425.635 1763.11,418.311ZM1760.92,359.424C1751.35,363.33 1736.99,366.65 1717.85,369.385C1707.01,370.947 1699.34,372.705 1694.85,374.658C1690.36,376.611 1686.89,379.468 1684.45,383.228C1682.01,386.987 1680.79,391.162 1680.79,395.752C1680.79,402.783 1683.45,408.643 1688.77,413.33C1694.09,418.018 1701.88,420.361 1712.14,420.361C1722.29,420.361 1731.33,418.14 1739.24,413.696C1747.15,409.253 1752.96,403.174 1756.67,395.459C1759.5,389.502 1760.92,380.713 1760.92,369.092L1760.92,359.424Z" style="fill:rgb(78,81,85);fill-rule:nonzero;"/>
        </g>
        <g transform="matrix(0.0920677,0,0,0.0796265,290.701,181.494)">
            <path d="M564.236,437.5L564.236,377.848L586.615,377.848C591.173,377.848 594.828,378.452 597.581,379.659C600.335,380.866 602.491,382.724 604.051,385.234C605.611,387.743 606.391,390.367 606.391,393.107C606.391,395.657 605.699,398.058 604.316,400.309C602.932,402.561 600.843,404.378 598.049,405.762C601.657,406.82 604.431,408.624 606.37,411.174C608.31,413.723 609.28,416.735 609.28,420.207C609.28,423.001 608.69,425.598 607.51,427.999C606.33,430.4 604.872,432.251 603.136,433.553C601.399,434.855 599.223,435.839 596.605,436.503C593.987,437.168 590.779,437.5 586.982,437.5L564.236,437.5ZM572.13,402.913L585.028,402.913C588.528,402.913 591.037,402.683 592.556,402.222C594.564,401.625 596.076,400.635 597.093,399.251C598.11,397.868 598.619,396.132 598.619,394.043C598.619,392.063 598.144,390.32 597.195,388.814C596.245,387.309 594.889,386.278 593.126,385.722C591.363,385.166 588.338,384.888 584.052,384.888L572.13,384.888L572.13,402.913ZM572.13,430.461L586.982,430.461C589.532,430.461 591.322,430.366 592.353,430.176C594.17,429.85 595.689,429.308 596.91,428.548C598.131,427.789 599.134,426.683 599.921,425.232C600.708,423.781 601.101,422.106 601.101,420.207C601.101,417.982 600.531,416.05 599.392,414.408C598.253,412.767 596.673,411.614 594.652,410.95C592.631,410.285 589.721,409.953 585.924,409.953L572.13,409.953L572.13,430.461Z" style="fill:rgb(44,115,148);fill-rule:nonzero;"/>
            <path d="M619.249,386.271L619.249,377.848L626.573,377.848L626.573,386.271L619.249,386.271ZM619.249,437.5L619.249,394.287L626.573,394.287L626.573,437.5L619.249,437.5Z" style="fill:rgb(44,115,148);fill-rule:nonzero;"/>
            <path d="M634.996,415.894C634.996,407.891 637.22,401.964 641.669,398.112C645.385,394.911 649.916,393.311 655.26,393.311C661.2,393.311 666.056,395.257 669.827,399.15C673.597,403.042 675.483,408.42 675.483,415.283C675.483,420.844 674.648,425.218 672.98,428.406C671.312,431.593 668.884,434.068 665.697,435.832C662.509,437.595 659.03,438.477 655.26,438.477C649.21,438.477 644.321,436.537 640.591,432.658C636.861,428.779 634.996,423.191 634.996,415.894ZM642.524,415.894C642.524,421.427 643.731,425.571 646.145,428.324C648.559,431.078 651.597,432.454 655.26,432.454C658.895,432.454 661.919,431.071 664.334,428.304C666.748,425.537 667.955,421.319 667.955,415.649C667.955,410.305 666.741,406.257 664.313,403.503C661.885,400.75 658.867,399.373 655.26,399.373C651.597,399.373 648.559,400.743 646.145,403.483C643.731,406.223 642.524,410.36 642.524,415.894Z" style="fill:rgb(44,115,148);fill-rule:nonzero;"/>
            <path d="M684.068,437.5L684.068,394.287L690.619,394.287L690.619,400.35C691.976,398.234 693.78,396.532 696.031,395.243C698.283,393.955 700.846,393.311 703.722,393.311C706.922,393.311 709.547,393.975 711.595,395.304C713.643,396.634 715.088,398.492 715.929,400.879C719.347,395.833 723.795,393.311 729.275,393.311C733.561,393.311 736.857,394.497 739.163,396.871C741.468,399.245 742.621,402.9 742.621,407.837L742.621,437.5L735.338,437.5L735.338,410.278C735.338,407.349 735.1,405.24 734.626,403.951C734.151,402.663 733.29,401.625 732.042,400.838C730.794,400.052 729.329,399.658 727.647,399.658C724.609,399.658 722.086,400.669 720.079,402.69C718.072,404.711 717.068,407.945 717.068,412.394L717.068,437.5L709.744,437.5L709.744,409.424C709.744,406.169 709.147,403.727 707.953,402.1C706.76,400.472 704.807,399.658 702.094,399.658C700.032,399.658 698.127,400.201 696.377,401.286C694.627,402.371 693.359,403.958 692.572,406.047C691.786,408.135 691.392,411.146 691.392,415.08L691.392,437.5L684.068,437.5Z" style="fill:rgb(44,115,148);fill-rule:nonzero;"/>
            <path d="M783.067,423.584L790.636,424.52C789.442,428.942 787.231,432.373 784.003,434.814C780.775,437.256 776.652,438.477 771.633,438.477C765.313,438.477 760.301,436.53 756.598,432.638C752.896,428.745 751.044,423.286 751.044,416.26C751.044,408.99 752.916,403.347 756.659,399.333C760.403,395.318 765.259,393.311 771.226,393.311C777.004,393.311 781.724,395.277 785.387,399.211C789.049,403.144 790.88,408.678 790.88,415.812C790.88,416.246 790.866,416.897 790.839,417.765L758.612,417.765C758.884,422.513 760.227,426.147 762.641,428.67C765.055,431.193 768.066,432.454 771.674,432.454C774.36,432.454 776.652,431.749 778.551,430.339C780.449,428.928 781.955,426.676 783.067,423.584ZM759.019,411.743L783.149,411.743C782.823,408.108 781.901,405.382 780.382,403.564C778.049,400.743 775.024,399.333 771.308,399.333C767.944,399.333 765.116,400.458 762.824,402.71C760.532,404.962 759.264,407.973 759.019,411.743Z" style="fill:rgb(44,115,148);fill-rule:nonzero;"/>
            <path d="M828.03,421.672L835.232,422.607C834.445,427.572 832.431,431.458 829.189,434.265C825.948,437.073 821.967,438.477 817.247,438.477C811.333,438.477 806.579,436.544 802.985,432.678C799.391,428.813 797.594,423.272 797.594,416.056C797.594,411.391 798.367,407.308 799.913,403.809C801.459,400.309 803.812,397.685 806.973,395.935C810.133,394.185 813.571,393.311 817.288,393.311C821.981,393.311 825.819,394.497 828.803,396.871C831.787,399.245 833.699,402.615 834.54,406.982L827.419,408.081C826.741,405.179 825.541,402.995 823.818,401.53C822.096,400.065 820.014,399.333 817.572,399.333C813.883,399.333 810.886,400.655 808.58,403.3C806.274,405.945 805.121,410.129 805.121,415.853C805.121,421.658 806.233,425.876 808.458,428.508C810.682,431.139 813.585,432.454 817.166,432.454C820.041,432.454 822.442,431.573 824.368,429.81C826.294,428.046 827.514,425.334 828.03,421.672Z" style="fill:rgb(44,115,148);fill-rule:nonzero;"/>
            <path d="M841.498,437.5L841.498,377.848L848.822,377.848L848.822,399.251C852.24,395.291 856.554,393.311 861.762,393.311C864.963,393.311 867.743,393.941 870.103,395.203C872.463,396.464 874.152,398.207 875.169,400.431C876.187,402.656 876.695,405.884 876.695,410.116L876.695,437.5L869.371,437.5L869.371,410.116C869.371,406.453 868.577,403.788 866.991,402.12C865.404,400.452 863.159,399.618 860.256,399.618C858.086,399.618 856.045,400.18 854.132,401.306C852.22,402.432 850.857,403.958 850.043,405.884C849.229,407.81 848.822,410.468 848.822,413.859L848.822,437.5L841.498,437.5Z" style="fill:rgb(44,115,148);fill-rule:nonzero;"/>
            <path d="M916.042,432.17C913.33,434.475 910.719,436.103 908.21,437.052C905.7,438.002 903.008,438.477 900.133,438.477C895.385,438.477 891.737,437.317 889.187,434.998C886.637,432.678 885.362,429.715 885.362,426.107C885.362,423.991 885.844,422.058 886.807,420.308C887.77,418.559 889.031,417.155 890.591,416.097C892.151,415.039 893.907,414.239 895.86,413.696C897.298,413.317 899.468,412.95 902.371,412.598C908.284,411.892 912.638,411.051 915.432,410.075C915.459,409.071 915.473,408.434 915.473,408.162C915.473,405.179 914.781,403.076 913.398,401.855C911.526,400.201 908.745,399.373 905.056,399.373C901.611,399.373 899.068,399.977 897.427,401.184C895.786,402.391 894.572,404.527 893.785,407.593L886.624,406.616C887.275,403.551 888.346,401.076 889.838,399.19C891.33,397.305 893.487,395.854 896.308,394.836C899.129,393.819 902.398,393.311 906.114,393.311C909.803,393.311 912.801,393.745 915.107,394.613C917.412,395.481 919.108,396.573 920.193,397.888C921.278,399.204 922.037,400.865 922.472,402.873C922.716,404.121 922.838,406.372 922.838,409.627L922.838,419.393C922.838,426.202 922.994,430.508 923.306,432.312C923.618,434.116 924.235,435.845 925.157,437.5L917.507,437.5C916.748,435.981 916.259,434.204 916.042,432.17ZM915.432,415.812C912.774,416.897 908.786,417.82 903.469,418.579C900.458,419.013 898.329,419.501 897.081,420.044C895.833,420.587 894.87,421.38 894.192,422.424C893.514,423.469 893.175,424.628 893.175,425.903C893.175,427.856 893.914,429.484 895.392,430.786C896.871,432.088 899.034,432.739 901.882,432.739C904.704,432.739 907.213,432.122 909.41,430.888C911.607,429.654 913.221,427.965 914.252,425.822C915.039,424.167 915.432,421.726 915.432,418.498L915.432,415.812Z" style="fill:rgb(44,115,148);fill-rule:nonzero;"/>
            <path d="M934.19,437.5L934.19,394.287L940.782,394.287L940.782,400.431C943.956,395.684 948.54,393.311 954.535,393.311C957.139,393.311 959.533,393.779 961.717,394.714C963.901,395.65 965.535,396.878 966.62,398.397C967.705,399.916 968.465,401.72 968.899,403.809C969.17,405.165 969.306,407.539 969.306,410.929L969.306,437.5L961.982,437.5L961.982,411.214C961.982,408.23 961.697,405.999 961.127,404.521C960.557,403.042 959.547,401.862 958.096,400.981C956.644,400.099 954.942,399.658 952.989,399.658C949.87,399.658 947.177,400.648 944.912,402.629C942.647,404.609 941.514,408.366 941.514,413.9L941.514,437.5L934.19,437.5Z" style="fill:rgb(44,115,148);fill-rule:nonzero;"/>
            <path d="M980.577,386.271L980.577,377.848L987.901,377.848L987.901,386.271L980.577,386.271ZM980.577,437.5L980.577,394.287L987.901,394.287L987.901,437.5L980.577,437.5Z" style="fill:rgb(44,115,148);fill-rule:nonzero;"/>
            <path d="M1027.25,421.672L1034.45,422.607C1033.66,427.572 1031.65,431.458 1028.41,434.265C1025.17,437.073 1021.19,438.477 1016.47,438.477C1010.55,438.477 1005.8,436.544 1002.2,432.678C998.609,428.813 996.812,423.272 996.812,416.056C996.812,411.391 997.585,407.308 999.132,403.809C1000.68,400.309 1003.03,397.685 1006.19,395.935C1009.35,394.185 1012.79,393.311 1016.51,393.311C1021.2,393.311 1025.04,394.497 1028.02,396.871C1031.01,399.245 1032.92,402.615 1033.76,406.982L1026.64,408.081C1025.96,405.179 1024.76,402.995 1023.04,401.53C1021.32,400.065 1019.23,399.333 1016.79,399.333C1013.1,399.333 1010.1,400.655 1007.8,403.3C1005.49,405.945 1004.34,410.129 1004.34,415.853C1004.34,421.658 1005.45,425.876 1007.68,428.508C1009.9,431.139 1012.8,432.454 1016.38,432.454C1019.26,432.454 1021.66,431.573 1023.59,429.81C1025.51,428.046 1026.73,425.334 1027.25,421.672Z" style="fill:rgb(44,115,148);fill-rule:nonzero;"/>
            <path d="M1068.91,432.17C1066.2,434.475 1063.59,436.103 1061.08,437.052C1058.57,438.002 1055.88,438.477 1053.01,438.477C1048.26,438.477 1044.61,437.317 1042.06,434.998C1039.51,432.678 1038.24,429.715 1038.24,426.107C1038.24,423.991 1038.72,422.058 1039.68,420.308C1040.64,418.559 1041.9,417.155 1043.46,416.097C1045.02,415.039 1046.78,414.239 1048.73,413.696C1050.17,413.317 1052.34,412.95 1055.24,412.598C1061.16,411.892 1065.51,411.051 1068.31,410.075C1068.33,409.071 1068.35,408.434 1068.35,408.162C1068.35,405.179 1067.65,403.076 1066.27,401.855C1064.4,400.201 1061.62,399.373 1057.93,399.373C1054.48,399.373 1051.94,399.977 1050.3,401.184C1048.66,402.391 1047.44,404.527 1046.66,407.593L1039.5,406.616C1040.15,403.551 1041.22,401.076 1042.71,399.19C1044.2,397.305 1046.36,395.854 1049.18,394.836C1052,393.819 1055.27,393.311 1058.99,393.311C1062.68,393.311 1065.67,393.745 1067.98,394.613C1070.29,395.481 1071.98,396.573 1073.07,397.888C1074.15,399.204 1074.91,400.865 1075.34,402.873C1075.59,404.121 1075.71,406.372 1075.71,409.627L1075.71,419.393C1075.71,426.202 1075.87,430.508 1076.18,432.312C1076.49,434.116 1077.11,435.845 1078.03,437.5L1070.38,437.5C1069.62,435.981 1069.13,434.204 1068.91,432.17ZM1068.31,415.812C1065.65,416.897 1061.66,417.82 1056.34,418.579C1053.33,419.013 1051.2,419.501 1049.95,420.044C1048.71,420.587 1047.74,421.38 1047.07,422.424C1046.39,423.469 1046.05,424.628 1046.05,425.903C1046.05,427.856 1046.79,429.484 1048.27,430.786C1049.74,432.088 1051.91,432.739 1054.76,432.739C1057.58,432.739 1060.09,432.122 1062.28,430.888C1064.48,429.654 1066.09,427.965 1067.13,425.822C1067.91,424.167 1068.31,421.726 1068.31,418.498L1068.31,415.812Z" style="fill:rgb(44,115,148);fill-rule:nonzero;"/>
            <rect x="1086.9" y="377.848" width="7.324" height="59.652" style="fill:rgb(44,115,148);fill-rule:nonzero;"/>
            <path d="M1156.93,432.17C1154.21,434.475 1151.6,436.103 1149.1,437.052C1146.59,438.002 1143.89,438.477 1141.02,438.477C1136.27,438.477 1132.62,437.317 1130.07,434.998C1127.52,432.678 1126.25,429.715 1126.25,426.107C1126.25,423.991 1126.73,422.058 1127.69,420.308C1128.65,418.559 1129.92,417.155 1131.48,416.097C1133.04,415.039 1134.79,414.239 1136.75,413.696C1138.18,413.317 1140.35,412.95 1143.26,412.598C1149.17,411.892 1153.52,411.051 1156.32,410.075C1156.35,409.071 1156.36,408.434 1156.36,408.162C1156.36,405.179 1155.67,403.076 1154.28,401.855C1152.41,400.201 1149.63,399.373 1145.94,399.373C1142.5,399.373 1139.95,399.977 1138.31,401.184C1136.67,402.391 1135.46,404.527 1134.67,407.593L1127.51,406.616C1128.16,403.551 1129.23,401.076 1130.72,399.19C1132.21,397.305 1134.37,395.854 1137.19,394.836C1140.01,393.819 1143.28,393.311 1147,393.311C1150.69,393.311 1153.69,393.745 1155.99,394.613C1158.3,395.481 1159.99,396.573 1161.08,397.888C1162.16,399.204 1162.92,400.865 1163.36,402.873C1163.6,404.121 1163.72,406.372 1163.72,409.627L1163.72,419.393C1163.72,426.202 1163.88,430.508 1164.19,432.312C1164.5,434.116 1165.12,435.845 1166.04,437.5L1158.39,437.5C1157.63,435.981 1157.14,434.204 1156.93,432.17ZM1156.32,415.812C1153.66,416.897 1149.67,417.82 1144.36,418.579C1141.34,419.013 1139.21,419.501 1137.97,420.044C1136.72,420.587 1135.76,421.38 1135.08,422.424C1134.4,423.469 1134.06,424.628 1134.06,425.903C1134.06,427.856 1134.8,429.484 1136.28,430.786C1137.76,432.088 1139.92,432.739 1142.77,432.739C1145.59,432.739 1148.1,432.122 1150.3,430.888C1152.49,429.654 1154.11,427.965 1155.14,425.822C1155.92,424.167 1156.32,421.726 1156.32,418.498L1156.32,415.812Z" style="fill:rgb(44,115,148);fill-rule:nonzero;"/>
            <path d="M1175.08,437.5L1175.08,394.287L1181.67,394.287L1181.67,400.431C1184.84,395.684 1189.43,393.311 1195.42,393.311C1198.03,393.311 1200.42,393.779 1202.6,394.714C1204.79,395.65 1206.42,396.878 1207.51,398.397C1208.59,399.916 1209.35,401.72 1209.78,403.809C1210.06,405.165 1210.19,407.539 1210.19,410.929L1210.19,437.5L1202.87,437.5L1202.87,411.214C1202.87,408.23 1202.58,405.999 1202.01,404.521C1201.44,403.042 1200.43,401.862 1198.98,400.981C1197.53,400.099 1195.83,399.658 1193.88,399.658C1190.76,399.658 1188.06,400.648 1185.8,402.629C1183.53,404.609 1182.4,408.366 1182.4,413.9L1182.4,437.5L1175.08,437.5Z" style="fill:rgb(44,115,148);fill-rule:nonzero;"/>
            <path d="M1249.62,432.17C1246.91,434.475 1244.3,436.103 1241.79,437.052C1239.28,438.002 1236.59,438.477 1233.71,438.477C1228.96,438.477 1225.31,437.317 1222.76,434.998C1220.21,432.678 1218.94,429.715 1218.94,426.107C1218.94,423.991 1219.42,422.058 1220.38,420.308C1221.35,418.559 1222.61,417.155 1224.17,416.097C1225.73,415.039 1227.49,414.239 1229.44,413.696C1230.88,413.317 1233.05,412.95 1235.95,412.598C1241.86,411.892 1246.22,411.051 1249.01,410.075C1249.04,409.071 1249.05,408.434 1249.05,408.162C1249.05,405.179 1248.36,403.076 1246.98,401.855C1245.1,400.201 1242.32,399.373 1238.63,399.373C1235.19,399.373 1232.64,399.977 1231,401.184C1229.36,402.391 1228.15,404.527 1227.36,407.593L1220.2,406.616C1220.85,403.551 1221.92,401.076 1223.42,399.19C1224.91,397.305 1227.06,395.854 1229.88,394.836C1232.71,393.819 1235.98,393.311 1239.69,393.311C1243.38,393.311 1246.38,393.745 1248.68,394.613C1250.99,395.481 1252.68,396.573 1253.77,397.888C1254.86,399.204 1255.62,400.865 1256.05,402.873C1256.29,404.121 1256.41,406.372 1256.41,409.627L1256.41,419.393C1256.41,426.202 1256.57,430.508 1256.88,432.312C1257.19,434.116 1257.81,435.845 1258.74,437.5L1251.09,437.5C1250.33,435.981 1249.84,434.204 1249.62,432.17ZM1249.01,415.812C1246.35,416.897 1242.36,417.82 1237.05,418.579C1234.04,419.013 1231.91,419.501 1230.66,420.044C1229.41,420.587 1228.45,421.38 1227.77,422.424C1227.09,423.469 1226.75,424.628 1226.75,425.903C1226.75,427.856 1227.49,429.484 1228.97,430.786C1230.45,432.088 1232.61,432.739 1235.46,432.739C1238.28,432.739 1240.79,432.122 1242.99,430.888C1245.18,429.654 1246.8,427.965 1247.83,425.822C1248.62,424.167 1249.01,421.726 1249.01,418.498L1249.01,415.812Z" style="fill:rgb(44,115,148);fill-rule:nonzero;"/>
            <rect x="1267.61" y="377.848" width="7.324" height="59.652" style="fill:rgb(44,115,148);fill-rule:nonzero;"/>
            <path d="M1285.96,454.142L1285.14,447.266C1286.74,447.7 1288.14,447.917 1289.33,447.917C1290.96,447.917 1292.26,447.645 1293.24,447.103C1294.22,446.56 1295.02,445.801 1295.64,444.824C1296.1,444.092 1296.85,442.274 1297.88,439.372C1298.01,438.965 1298.23,438.368 1298.53,437.581L1282.13,394.287L1290.03,394.287L1299.02,419.312C1300.18,422.485 1301.23,425.822 1302.15,429.321C1302.99,425.958 1304,422.675 1305.16,419.474L1314.4,394.287L1321.72,394.287L1305.28,438.232C1303.52,442.98 1302.15,446.248 1301.17,448.039C1299.87,450.453 1298.38,452.223 1296.7,453.349C1295.02,454.475 1293.01,455.037 1290.68,455.037C1289.27,455.037 1287.69,454.739 1285.96,454.142Z" style="fill:rgb(44,115,148);fill-rule:nonzero;"/>
            <path d="M1325.02,424.601L1332.26,423.462C1332.67,426.365 1333.8,428.589 1335.66,430.135C1337.52,431.681 1340.12,432.454 1343.45,432.454C1346.82,432.454 1349.31,431.77 1350.94,430.4C1352.57,429.03 1353.38,427.422 1353.38,425.578C1353.38,423.923 1352.66,422.621 1351.22,421.672C1350.22,421.021 1347.72,420.193 1343.74,419.189C1338.37,417.833 1334.64,416.66 1332.57,415.67C1330.49,414.68 1328.92,413.31 1327.85,411.56C1326.78,409.81 1326.24,407.878 1326.24,405.762C1326.24,403.836 1326.68,402.052 1327.56,400.411C1328.44,398.77 1329.64,397.407 1331.16,396.322C1332.3,395.481 1333.86,394.769 1335.82,394.185C1337.79,393.602 1339.9,393.311 1342.15,393.311C1345.54,393.311 1348.52,393.799 1351.08,394.775C1353.64,395.752 1355.54,397.074 1356.76,398.743C1357.98,400.411 1358.82,402.642 1359.28,405.436L1352.12,406.413C1351.79,404.188 1350.85,402.452 1349.29,401.204C1347.73,399.957 1345.53,399.333 1342.68,399.333C1339.32,399.333 1336.91,399.889 1335.48,401.001C1334.04,402.113 1333.32,403.415 1333.32,404.907C1333.32,405.857 1333.62,406.711 1334.21,407.471C1334.81,408.257 1335.75,408.908 1337.02,409.424C1337.76,409.695 1339.91,410.319 1343.49,411.296C1348.67,412.679 1352.29,413.812 1354.34,414.693C1356.38,415.575 1357.99,416.857 1359.16,418.538C1360.32,420.22 1360.91,422.309 1360.91,424.805C1360.91,427.246 1360.19,429.545 1358.77,431.702C1357.35,433.858 1355.29,435.527 1352.61,436.707C1349.92,437.887 1346.88,438.477 1343.49,438.477C1337.88,438.477 1333.6,437.31 1330.65,434.977C1327.71,432.644 1325.83,429.186 1325.02,424.601Z" style="fill:rgb(44,115,148);fill-rule:nonzero;"/>
            <path d="M1369.66,386.271L1369.66,377.848L1376.98,377.848L1376.98,386.271L1369.66,386.271ZM1369.66,437.5L1369.66,394.287L1376.98,394.287L1376.98,437.5L1369.66,437.5Z" style="fill:rgb(44,115,148);fill-rule:nonzero;"/>
            <path d="M1385.2,424.601L1392.44,423.462C1392.85,426.365 1393.98,428.589 1395.84,430.135C1397.7,431.681 1400.3,432.454 1403.63,432.454C1407,432.454 1409.49,431.77 1411.12,430.4C1412.75,429.03 1413.56,427.422 1413.56,425.578C1413.56,423.923 1412.84,422.621 1411.4,421.672C1410.4,421.021 1407.9,420.193 1403.92,419.189C1398.55,417.833 1394.82,416.66 1392.75,415.67C1390.67,414.68 1389.1,413.31 1388.03,411.56C1386.96,409.81 1386.42,407.878 1386.42,405.762C1386.42,403.836 1386.86,402.052 1387.74,400.411C1388.62,398.77 1389.82,397.407 1391.34,396.322C1392.48,395.481 1394.04,394.769 1396,394.185C1397.97,393.602 1400.08,393.311 1402.33,393.311C1405.72,393.311 1408.7,393.799 1411.26,394.775C1413.83,395.752 1415.72,397.074 1416.94,398.743C1418.16,400.411 1419,402.642 1419.46,405.436L1412.3,406.413C1411.97,404.188 1411.03,402.452 1409.47,401.204C1407.91,399.957 1405.71,399.333 1402.86,399.333C1399.5,399.333 1397.09,399.889 1395.66,401.001C1394.22,402.113 1393.5,403.415 1393.5,404.907C1393.5,405.857 1393.8,406.711 1394.39,407.471C1394.99,408.257 1395.93,408.908 1397.2,409.424C1397.93,409.695 1400.09,410.319 1403.67,411.296C1408.85,412.679 1412.47,413.812 1414.52,414.693C1416.57,415.575 1418.17,416.857 1419.34,418.538C1420.51,420.22 1421.09,422.309 1421.09,424.805C1421.09,427.246 1420.38,429.545 1418.95,431.702C1417.53,433.858 1415.47,435.527 1412.79,436.707C1410.1,437.887 1407.06,438.477 1403.67,438.477C1398.06,438.477 1393.78,437.31 1390.84,434.977C1387.89,432.644 1386.01,429.186 1385.2,424.601Z" style="fill:rgb(44,115,148);fill-rule:nonzero;"/>
        </g>
        <g>
            <g id="SvgjsG3442" transform="matrix(0.416972,0,0,0.360626,261.721,181.862)">
                <circle cx="50" cy="50" r="50" style="fill:none;stroke:rgb(44,115,148);stroke-width:1.05px;"/>
            </g>
            <g id="Symb" transform="matrix(0.353479,0,0,0.305714,264.972,184.684)">
                <path d="M68.1,35.7C64.5,24.4 57,17.4 48.6,17.4C39.9,17.4 32.3,25.1 28.9,36.3C15.4,39.1 6.4,44.5 6.4,50.9C6.4,55.5 11,59.7 19.4,62.8L18.8,64.7L24.6,63.4L20.6,59L20,60.9C12.6,58.2 8.3,54.5 8.3,50.9C8.3,45.8 16.3,41.1 28.1,38.5C27.2,42.1 26.7,46 26.7,50C26.7,68 36.5,82.6 48.5,82.6C57.9,82.6 66.2,73.6 69.1,60.4L74.1,60.9L69.3,50L62.3,59.7L67.2,60.2C64.4,72.3 56.9,80.6 48.6,80.6C37.7,80.6 28.8,66.9 28.8,50C28.8,45.8 29.4,41.7 30.4,38C36.3,36.9 43,36.2 50,36.2C72.5,36.2 91.6,42.9 91.6,50.8C91.6,54.5 87.3,58.2 79.7,60.9C79.2,61.1 78.9,61.7 79.1,62.2C79.3,62.7 79.9,63 80.4,62.8C88.9,59.7 93.6,55.4 93.6,50.8C93.6,44 83.3,38.3 68.1,35.7ZM31.1,35.8C34.4,26 41,19.4 48.6,19.4C55.8,19.4 62.5,25.6 65.9,35.3C61,34.6 55.6,34.3 50,34.3C43.2,34.3 36.8,34.8 31.1,35.8Z" style="fill:rgb(44,115,148);fill-rule:nonzero;"/>
            </g>
        </g>
    </g>
</svg>
