<?xml version="1.0" encoding="UTF-8" standalone="no"?>
<svg
   xmlns:dc="http://purl.org/dc/elements/1.1/"
   xmlns:cc="http://creativecommons.org/ns#"
   xmlns:rdf="http://www.w3.org/1999/02/22-rdf-syntax-ns#"
   xmlns:svg="http://www.w3.org/2000/svg"
   xmlns="http://www.w3.org/2000/svg"
   xmlns:sodipodi="http://sodipodi.sourceforge.net/DTD/sodipodi-0.dtd"
   xmlns:inkscape="http://www.inkscape.org/namespaces/inkscape"
   width="100%"
   height="100%"
   viewBox="0 0 400 100"
   version="1.1"
   style="fill-rule:evenodd;clip-rule:evenodd;stroke-linejoin:round;stroke-miterlimit:1.41421;"
   id="svg72"
   sodipodi:docname="logo_plain.svg"
   inkscape:version="0.92.4 (f8dce91, 2019-08-02)">
  <metadata
     id="metadata78">
    <rdf:RDF>
      <cc:Work
         rdf:about="">
        <dc:format>image/svg+xml</dc:format>
        <dc:type
           rdf:resource="http://purl.org/dc/dcmitype/StillImage" />
      </cc:Work>
    </rdf:RDF>
  </metadata>
  <defs
     id="defs76" />
  <sodipodi:namedview
     pagecolor="#ffffff"
     bordercolor="#666666"
     borderopacity="1"
     objecttolerance="10"
     gridtolerance="10"
     guidetolerance="10"
     inkscape:pageopacity="0"
     inkscape:pageshadow="2"
     inkscape:window-width="1920"
     inkscape:window-height="1043"
     id="namedview74"
     showgrid="false"
     inkscape:zoom="2.5173001"
     inkscape:cx="135.76452"
     inkscape:cy="9.1212384"
     inkscape:window-x="1920"
     inkscape:window-y="0"
     inkscape:window-maximized="1"
     inkscape:current-layer="svg72" />
  <g
     id="g16"
     transform="matrix(0.21002484,0,0,0.21002525,6.431958,-26.962632)">
    <path
       inkscape:connector-curvature="0"
       id="path2"
       style="fill:#4e5155;fill-rule:nonzero"
       d="m 723.367,285.742 c 0,21.68 -7.398,38.355 -22.193,50.025 -14.795,11.67 -35.962,17.505 -63.501,17.505 H 612.478 V 437.5 H 587.576 V 223.34 h 55.517 c 53.516,0 80.274,20.801 80.274,62.402 z m -110.889,46.143 h 22.412 c 22.07,0 38.037,-3.565 47.901,-10.694 9.863,-7.128 14.794,-18.554 14.794,-34.277 0,-14.16 -4.638,-24.707 -13.916,-31.641 -9.277,-6.933 -23.73,-10.4 -43.359,-10.4 h -27.832 z" />
    <path
       inkscape:connector-curvature="0"
       id="path4"
       style="fill:#525252;fill-rule:nonzero;fill-opacity:1"
       d="m 739.041,276.953 h 26.074 l 35.156,91.553 c 7.715,20.898 12.5,35.986 14.355,45.264 h 1.172 c 1.27,-4.981 3.931,-13.501 7.984,-25.562 4.052,-12.061 17.309,-49.145 39.77,-111.255 h 26.074 l -68.994,182.813 c -6.836,18.066 -14.819,30.883 -23.95,38.452 -9.131,7.568 -20.337,11.352 -33.618,11.352 -7.422,0 -14.746,-0.83 -21.973,-2.49 v -19.482 c 5.371,1.172 11.377,1.757 18.018,1.757 16.699,0 28.613,-9.375 35.742,-28.125 l 8.936,-22.851 z" />
    <path
       inkscape:connector-curvature="0"
       id="path6"
       style="fill:#4e5155;fill-rule:nonzero"
       d="m 1054.28,357.08 c 0,26.172 -6.6,46.607 -19.78,61.304 -13.18,14.697 -31.4,22.046 -54.639,22.046 -14.356,0 -27.1,-3.369 -38.233,-10.108 -11.132,-6.738 -19.726,-16.406 -25.781,-29.004 -6.055,-12.597 -9.082,-27.343 -9.082,-44.238 0,-26.172 6.543,-46.558 19.629,-61.157 13.086,-14.6 31.25,-21.9 54.492,-21.9 22.464,0 40.304,7.471 53.544,22.413 13.23,14.941 19.85,35.156 19.85,60.644 z m -122.32,0 c 0,20.508 4.102,36.133 12.305,46.875 8.203,10.742 20.264,16.113 36.182,16.113 15.918,0 28.003,-5.346 36.253,-16.04 8.25,-10.693 12.38,-26.342 12.38,-46.948 0,-20.41 -4.13,-35.913 -12.38,-46.509 -8.25,-10.595 -20.433,-15.893 -36.546,-15.893 -15.918,0 -27.93,5.224 -36.035,15.674 -8.106,10.449 -12.159,26.025 -12.159,46.728 z" />
    <path
       inkscape:connector-curvature="0"
       id="path8"
       style="fill:#4e5155;fill-rule:nonzero"
       d="M 1301.54,437.5 V 333.057 c 0,-12.793 -2.73,-22.388 -8.2,-28.785 -5.47,-6.396 -13.97,-9.594 -25.49,-9.594 -15.14,0 -26.32,4.345 -33.55,13.037 -7.22,8.691 -10.84,22.07 -10.84,40.137 V 437.5 h -24.31 V 333.057 c 0,-12.793 -2.74,-22.388 -8.21,-28.785 -5.46,-6.396 -14.01,-9.594 -25.63,-9.594 -15.23,0 -26.39,4.565 -33.47,13.696 -7.08,9.131 -10.62,24.097 -10.62,44.898 V 437.5 H 1096.9 V 276.953 h 19.78 l 3.95,21.973 h 1.17 c 4.59,-7.813 11.06,-13.916 19.41,-18.311 8.35,-4.394 17.7,-6.592 28.06,-6.592 25.09,0 41.5,9.082 49.21,27.247 h 1.18 c 4.78,-8.399 11.72,-15.04 20.8,-19.922 9.08,-4.883 19.43,-7.325 31.05,-7.325 18.16,0 31.76,4.664 40.8,13.99 9.03,9.326 13.55,24.243 13.55,44.751 V 437.5 Z" />
    <path
       inkscape:connector-curvature="0"
       id="path10"
       style="fill:#4e5155;fill-rule:nonzero"
       d="m 1443.78,440.43 c -23.73,0 -42.46,-7.227 -56.18,-21.68 -13.72,-14.453 -20.58,-34.521 -20.58,-60.205 0,-25.879 6.37,-46.436 19.11,-61.67 12.75,-15.234 29.86,-22.852 51.35,-22.852 20.12,0 36.03,6.617 47.75,19.849 11.72,13.233 17.58,30.689 17.58,52.368 v 15.381 h -110.6 c 0.49,18.848 5.25,33.154 14.29,42.92 9.03,9.766 21.75,14.648 38.16,14.648 17.28,0 34.37,-3.613 51.26,-10.839 v 21.679 c -8.59,3.711 -16.72,6.372 -24.38,7.984 -7.67,1.611 -16.92,2.417 -27.76,2.417 z m -6.6,-146.045 c -12.89,0 -23.16,4.199 -30.83,12.597 -7.67,8.399 -12.18,20.02 -13.55,34.864 h 83.94 c 0,-15.332 -3.42,-27.075 -10.26,-35.23 -6.83,-8.154 -16.6,-12.231 -29.3,-12.231 z" />
    <path
       inkscape:connector-curvature="0"
       id="path12"
       style="fill:#4e5155;fill-rule:nonzero"
       d="m 1608.42,440.43 c -23.24,0 -41.23,-7.154 -53.97,-21.46 -12.75,-14.307 -19.12,-34.546 -19.12,-60.718 0,-26.855 6.47,-47.607 19.41,-62.256 12.94,-14.648 31.37,-21.973 55.3,-21.973 7.71,0 15.43,0.831 23.14,2.491 7.72,1.66 13.77,3.613 18.17,5.859 l -7.47,20.654 c -5.38,-2.148 -11.24,-3.93 -17.58,-5.346 -6.35,-1.416 -11.97,-2.124 -16.85,-2.124 -32.62,0 -48.92,20.8 -48.92,62.402 0,19.727 3.97,34.863 11.93,45.41 7.96,10.547 19.75,15.82 35.38,15.82 13.38,0 27.1,-2.88 41.16,-8.642 v 21.533 c -10.74,5.567 -24.27,8.35 -40.58,8.35 z" />
    <path
       inkscape:connector-curvature="0"
       id="path14"
       style="fill:#4e5155;fill-rule:nonzero"
       d="m 1785.82,437.5 -4.84,-22.852 h -1.17 c -8.01,10.059 -15.99,16.871 -23.95,20.435 -7.96,3.564 -17.89,5.347 -29.81,5.347 -15.92,0 -28.39,-4.102 -37.42,-12.305 -9.04,-8.203 -13.55,-19.873 -13.55,-35.01 0,-32.422 25.92,-49.414 77.78,-50.976 l 27.25,-0.879 v -9.961 c 0,-12.598 -2.72,-21.9 -8.13,-27.905 -5.42,-6.006 -14.09,-9.009 -26.01,-9.009 -13.37,0 -28.51,4.101 -45.41,12.304 l -7.47,-18.603 c 7.91,-4.297 16.58,-7.666 26,-10.107 9.43,-2.442 18.88,-3.663 28.35,-3.663 19.14,0 33.32,4.248 42.55,12.745 9.23,8.496 13.85,22.119 13.85,40.869 V 437.5 Z m -54.93,-17.139 c 15.13,0 27.02,-4.15 35.67,-12.451 8.64,-8.301 12.96,-19.922 12.96,-34.863 v -14.502 l -24.32,1.025 c -19.33,0.684 -33.27,3.687 -41.82,9.009 -8.54,5.322 -12.82,13.599 -12.82,24.829 0,8.789 2.67,15.479 7.99,20.069 5.32,4.589 12.77,6.884 22.34,6.884 z" />
  </g>
  <g
     id="g60"
     transform="matrix(0.21002484,0,0,0.21002525,80.828734,1.4710192)">
    <path
       inkscape:connector-curvature="0"
       id="path18"
       style="fill:#546e7a;fill-rule:nonzero;fill-opacity:1"
       d="m 566.311,378.011 h 16.805 c 7.894,0 13.604,1.18 17.131,3.54 3.526,2.36 5.289,6.09 5.289,11.19 0,3.526 -0.983,6.436 -2.95,8.728 -1.966,2.292 -4.835,3.777 -8.606,4.456 v 0.406 c 9.034,1.547 13.55,6.294 13.55,14.242 0,5.317 -1.797,9.467 -5.391,12.451 -3.595,2.984 -8.62,4.476 -15.076,4.476 h -20.752 z m 6.917,25.472 h 11.394 c 4.882,0 8.395,-0.766 10.538,-2.299 2.143,-1.533 3.215,-4.116 3.215,-7.751 0,-3.337 -1.194,-5.744 -3.581,-7.223 -2.387,-1.478 -6.185,-2.217 -11.393,-2.217 h -10.173 z m 0,5.859 V 431.6 h 12.411 c 4.801,0 8.416,-0.929 10.844,-2.787 2.428,-1.858 3.642,-4.768 3.642,-8.728 0,-3.69 -1.242,-6.402 -3.724,-8.138 -2.482,-1.736 -6.259,-2.605 -11.332,-2.605 z" />
    <path
       inkscape:connector-curvature="0"
       id="path20"
       style="fill:#546e7a;fill-rule:nonzero;fill-opacity:1"
       d="m 626.044,437.5 h -6.754 v -44.596 h 6.754 z m -7.324,-56.681 c 0,-1.547 0.38,-2.679 1.139,-3.398 0.76,-0.719 1.709,-1.078 2.849,-1.078 1.085,0 2.02,0.366 2.807,1.098 0.787,0.733 1.18,1.859 1.18,3.378 0,1.519 -0.393,2.651 -1.18,3.397 -0.787,0.746 -1.722,1.119 -2.807,1.119 -1.14,0 -2.089,-0.373 -2.849,-1.119 -0.759,-0.746 -1.139,-1.878 -1.139,-3.397 z" />
    <path
       inkscape:connector-curvature="0"
       id="path22"
       style="fill:#546e7a;fill-rule:nonzero;fill-opacity:1"
       d="m 678.86,415.161 c 0,7.27 -1.831,12.946 -5.493,17.029 -3.662,4.083 -8.722,6.124 -15.178,6.124 -3.987,0 -7.527,-0.936 -10.62,-2.808 -3.092,-1.872 -5.479,-4.557 -7.161,-8.056 -1.682,-3.5 -2.523,-7.596 -2.523,-12.289 0,-7.27 1.817,-12.933 5.452,-16.988 3.635,-4.055 8.681,-6.083 15.137,-6.083 6.239,0 11.197,2.075 14.872,6.225 3.676,4.151 5.514,9.766 5.514,16.846 z m -33.976,0 c 0,5.697 1.139,10.037 3.418,13.021 2.278,2.984 5.628,4.476 10.05,4.476 4.422,0 7.779,-1.485 10.071,-4.456 2.292,-2.97 3.438,-7.317 3.438,-13.041 0,-5.669 -1.146,-9.976 -3.438,-12.919 -2.292,-2.943 -5.676,-4.415 -10.152,-4.415 -4.422,0 -7.759,1.451 -10.01,4.354 -2.252,2.903 -3.377,7.229 -3.377,12.98 z" />
    <path
       inkscape:connector-curvature="0"
       id="path24"
       style="fill:#546e7a;fill-rule:nonzero;fill-opacity:1"
       d="m 747.545,437.5 v -29.012 c 0,-3.554 -0.76,-6.219 -2.279,-7.996 -1.519,-1.776 -3.879,-2.665 -7.08,-2.665 -4.205,0 -7.311,1.207 -9.318,3.622 -2.007,2.414 -3.011,6.13 -3.011,11.149 V 437.5 h -6.755 v -29.012 c 0,-3.554 -0.759,-6.219 -2.278,-7.996 -1.519,-1.776 -3.893,-2.665 -7.121,-2.665 -4.232,0 -7.331,1.268 -9.298,3.805 -1.966,2.536 -2.95,6.693 -2.95,12.471 V 437.5 h -6.754 v -44.596 h 5.493 l 1.098,6.103 h 0.326 c 1.275,-2.17 3.072,-3.865 5.391,-5.086 2.32,-1.221 4.917,-1.831 7.793,-1.831 6.971,0 11.528,2.523 13.671,7.568 h 0.326 c 1.329,-2.333 3.255,-4.177 5.778,-5.534 2.523,-1.356 5.398,-2.034 8.626,-2.034 5.046,0 8.823,1.295 11.332,3.886 2.51,2.59 3.764,6.734 3.764,12.431 V 437.5 Z" />
    <path
       inkscape:connector-curvature="0"
       id="path26"
       style="fill:#546e7a;fill-rule:nonzero;fill-opacity:1"
       d="m 787.055,438.314 c -6.592,0 -11.793,-2.008 -15.605,-6.022 -3.811,-4.015 -5.717,-9.59 -5.717,-16.724 0,-7.189 1.77,-12.899 5.31,-17.13 3.54,-4.232 8.294,-6.348 14.262,-6.348 5.588,0 10.01,1.838 13.265,5.513 3.255,3.676 4.883,8.525 4.883,14.547 v 4.273 h -30.721 c 0.136,5.235 1.458,9.209 3.967,11.922 2.509,2.712 6.043,4.069 10.6,4.069 4.801,0 9.549,-1.004 14.242,-3.011 v 6.022 c -2.388,1.031 -4.646,1.77 -6.775,2.217 -2.13,0.448 -4.7,0.672 -7.711,0.672 z m -1.831,-40.568 c -3.581,0 -6.436,1.166 -8.565,3.499 -2.13,2.333 -3.385,5.561 -3.764,9.684 h 23.315 c 0,-4.259 -0.949,-7.52 -2.848,-9.786 -1.899,-2.265 -4.612,-3.397 -8.138,-3.397 z" />
    <path
       inkscape:connector-curvature="0"
       id="path28"
       style="fill:#546e7a;fill-rule:nonzero;fill-opacity:1"
       d="m 832.791,438.314 c -6.457,0 -11.455,-1.987 -14.995,-5.961 -3.54,-3.974 -5.31,-9.596 -5.31,-16.866 0,-7.46 1.797,-13.225 5.392,-17.294 3.594,-4.069 8.714,-6.103 15.36,-6.103 2.143,0 4.286,0.23 6.429,0.692 2.143,0.461 3.825,1.003 5.046,1.627 l -2.075,5.738 c -1.492,-0.597 -3.12,-1.092 -4.883,-1.486 -1.764,-0.393 -3.323,-0.59 -4.68,-0.59 -9.06,0 -13.59,5.778 -13.59,17.334 0,5.48 1.105,9.685 3.316,12.614 2.211,2.93 5.486,4.395 9.827,4.395 3.716,0 7.527,-0.8 11.434,-2.401 v 5.981 c -2.984,1.547 -6.741,2.32 -11.271,2.32 z" />
    <path
       inkscape:connector-curvature="0"
       id="path30"
       style="fill:#546e7a;fill-rule:nonzero;fill-opacity:1"
       d="m 885.159,437.5 v -28.849 c 0,-3.635 -0.828,-6.348 -2.482,-8.138 -1.655,-1.791 -4.246,-2.686 -7.772,-2.686 -4.693,0 -8.118,1.275 -10.274,3.825 -2.157,2.55 -3.235,6.727 -3.235,12.533 V 437.5 h -6.755 v -63.314 h 6.755 v 19.165 c 0,2.306 -0.109,4.218 -0.326,5.738 h 0.407 c 1.329,-2.143 3.221,-3.832 5.676,-5.066 2.455,-1.235 5.256,-1.852 8.403,-1.852 5.452,0 9.542,1.296 12.268,3.886 2.726,2.591 4.089,6.707 4.089,12.35 V 437.5 Z" />
    <path
       inkscape:connector-curvature="0"
       id="path32"
       style="fill:#546e7a;fill-rule:nonzero;fill-opacity:1"
       d="m 933.214,437.5 -1.343,-6.348 h -0.326 c -2.224,2.794 -4.442,4.687 -6.652,5.677 -2.211,0.99 -4.971,1.485 -8.281,1.485 -4.422,0 -7.887,-1.139 -10.396,-3.418 -2.509,-2.279 -3.764,-5.52 -3.764,-9.725 0,-9.006 7.202,-13.726 21.606,-14.16 l 7.569,-0.244 V 408 c 0,-3.5 -0.753,-6.083 -2.259,-7.752 -1.505,-1.668 -3.913,-2.502 -7.222,-2.502 -3.716,0 -7.921,1.139 -12.614,3.418 l -2.075,-5.168 c 2.197,-1.193 4.605,-2.129 7.222,-2.807 2.618,-0.679 5.243,-1.018 7.874,-1.018 5.317,0 9.257,1.18 11.82,3.54 2.564,2.36 3.846,6.144 3.846,11.353 V 437.5 Z m -15.259,-4.761 c 4.205,0 7.507,-1.153 9.908,-3.458 2.401,-2.306 3.601,-5.534 3.601,-9.685 v -4.028 l -6.755,0.285 c -5.371,0.19 -9.243,1.024 -11.617,2.502 -2.373,1.479 -3.56,3.778 -3.56,6.897 0,2.442 0.739,4.3 2.218,5.575 1.478,1.275 3.547,1.912 6.205,1.912 z" />
    <path
       inkscape:connector-curvature="0"
       id="path34"
       style="fill:#546e7a;fill-rule:nonzero;fill-opacity:1"
       d="m 982.652,437.5 v -28.849 c 0,-3.635 -0.827,-6.348 -2.482,-8.138 -1.655,-1.791 -4.245,-2.686 -7.772,-2.686 -4.666,0 -8.083,1.262 -10.254,3.784 -2.17,2.523 -3.255,6.687 -3.255,12.492 V 437.5 h -6.754 v -44.596 h 5.493 l 1.098,6.103 h 0.326 c 1.383,-2.197 3.323,-3.899 5.819,-5.106 2.495,-1.208 5.276,-1.811 8.341,-1.811 5.371,0 9.413,1.295 12.126,3.886 2.712,2.59 4.069,6.734 4.069,12.431 V 437.5 Z" />
    <path
       inkscape:connector-curvature="0"
       id="path36"
       style="fill:#546e7a;fill-rule:nonzero;fill-opacity:1"
       d="m 1010.04,437.5 h -6.76 v -44.596 h 6.76 z m -7.33,-56.681 c 0,-1.547 0.38,-2.679 1.14,-3.398 0.76,-0.719 1.71,-1.078 2.85,-1.078 1.08,0 2.02,0.366 2.81,1.098 0.78,0.733 1.18,1.859 1.18,3.378 0,1.519 -0.4,2.651 -1.18,3.397 -0.79,0.746 -1.73,1.119 -2.81,1.119 -1.14,0 -2.09,-0.373 -2.85,-1.119 -0.76,-0.746 -1.14,-1.878 -1.14,-3.397 z" />
    <path
       inkscape:connector-curvature="0"
       id="path38"
       style="fill:#546e7a;fill-rule:nonzero;fill-opacity:1"
       d="m 1042.18,438.314 c -6.45,0 -11.45,-1.987 -14.99,-5.961 -3.54,-3.974 -5.31,-9.596 -5.31,-16.866 0,-7.46 1.8,-13.225 5.39,-17.294 3.59,-4.069 8.71,-6.103 15.36,-6.103 2.14,0 4.28,0.23 6.43,0.692 2.14,0.461 3.82,1.003 5.04,1.627 l -2.07,5.738 c -1.49,-0.597 -3.12,-1.092 -4.88,-1.486 -1.77,-0.393 -3.33,-0.59 -4.68,-0.59 -9.06,0 -13.59,5.778 -13.59,17.334 0,5.48 1.1,9.685 3.31,12.614 2.21,2.93 5.49,4.395 9.83,4.395 3.72,0 7.53,-0.8 11.43,-2.401 v 5.981 c -2.98,1.547 -6.74,2.32 -11.27,2.32 z" />
    <path
       inkscape:connector-curvature="0"
       id="path40"
       style="fill:#546e7a;fill-rule:nonzero;fill-opacity:1"
       d="m 1091.46,437.5 -1.34,-6.348 h -0.33 c -2.22,2.794 -4.44,4.687 -6.65,5.677 -2.21,0.99 -4.98,1.485 -8.28,1.485 -4.43,0 -7.89,-1.139 -10.4,-3.418 -2.51,-2.279 -3.76,-5.52 -3.76,-9.725 0,-9.006 7.2,-13.726 21.6,-14.16 l 7.57,-0.244 V 408 c 0,-3.5 -0.75,-6.083 -2.26,-7.752 -1.5,-1.668 -3.91,-2.502 -7.22,-2.502 -3.72,0 -7.92,1.139 -12.61,3.418 l -2.08,-5.168 c 2.2,-1.193 4.61,-2.129 7.22,-2.807 2.62,-0.679 5.24,-1.018 7.88,-1.018 5.31,0 9.25,1.18 11.82,3.54 2.56,2.36 3.84,6.144 3.84,11.353 V 437.5 Z m -15.26,-4.761 c 4.2,0 7.51,-1.153 9.91,-3.458 2.4,-2.306 3.6,-5.534 3.6,-9.685 v -4.028 l -6.76,0.285 c -5.37,0.19 -9.24,1.024 -11.61,2.502 -2.38,1.479 -3.56,3.778 -3.56,6.897 0,2.442 0.74,4.3 2.21,5.575 1.48,1.275 3.55,1.912 6.21,1.912 z" />
    <rect
       id="rect42"
       style="fill:#546e7a;fill-rule:nonzero;fill-opacity:1"
       height="63.313999"
       width="6.7550001"
       y="374.186"
       x="1110.38" />
    <path
       inkscape:connector-curvature="0"
       id="path44"
       style="fill:#546e7a;fill-rule:nonzero;fill-opacity:1"
       d="m 1180.53,437.5 -1.35,-6.348 h -0.32 c -2.23,2.794 -4.44,4.687 -6.65,5.677 -2.21,0.99 -4.97,1.485 -8.28,1.485 -4.42,0 -7.89,-1.139 -10.4,-3.418 -2.51,-2.279 -3.76,-5.52 -3.76,-9.725 0,-9.006 7.2,-13.726 21.6,-14.16 l 7.57,-0.244 V 408 c 0,-3.5 -0.75,-6.083 -2.26,-7.752 -1.5,-1.668 -3.91,-2.502 -7.22,-2.502 -3.72,0 -7.92,1.139 -12.61,3.418 l -2.08,-5.168 c 2.2,-1.193 4.61,-2.129 7.22,-2.807 2.62,-0.679 5.25,-1.018 7.88,-1.018 5.31,0 9.25,1.18 11.82,3.54 2.56,2.36 3.84,6.144 3.84,11.353 V 437.5 Z m -15.26,-4.761 c 4.2,0 7.51,-1.153 9.91,-3.458 2.4,-2.306 3.6,-5.534 3.6,-9.685 v -4.028 l -6.76,0.285 c -5.37,0.19 -9.24,1.024 -11.61,2.502 -2.38,1.479 -3.56,3.778 -3.56,6.897 0,2.442 0.74,4.3 2.21,5.575 1.48,1.275 3.55,1.912 6.21,1.912 z" />
    <path
       inkscape:connector-curvature="0"
       id="path46"
       style="fill:#546e7a;fill-rule:nonzero;fill-opacity:1"
       d="m 1229.97,437.5 v -28.849 c 0,-3.635 -0.83,-6.348 -2.48,-8.138 -1.66,-1.791 -4.25,-2.686 -7.78,-2.686 -4.66,0 -8.08,1.262 -10.25,3.784 -2.17,2.523 -3.26,6.687 -3.26,12.492 V 437.5 h -6.75 v -44.596 h 5.49 l 1.1,6.103 h 0.33 c 1.38,-2.197 3.32,-3.899 5.81,-5.106 2.5,-1.208 5.28,-1.811 8.35,-1.811 5.37,0 9.41,1.295 12.12,3.886 2.72,2.59 4.07,6.734 4.07,12.431 V 437.5 Z" />
    <path
       inkscape:connector-curvature="0"
       id="path48"
       style="fill:#546e7a;fill-rule:nonzero;fill-opacity:1"
       d="m 1278.02,437.5 -1.34,-6.348 h -0.33 c -2.22,2.794 -4.44,4.687 -6.65,5.677 -2.21,0.99 -4.97,1.485 -8.28,1.485 -4.42,0 -7.89,-1.139 -10.4,-3.418 -2.5,-2.279 -3.76,-5.52 -3.76,-9.725 0,-9.006 7.2,-13.726 21.61,-14.16 l 7.56,-0.244 V 408 c 0,-3.5 -0.75,-6.083 -2.25,-7.752 -1.51,-1.668 -3.92,-2.502 -7.23,-2.502 -3.71,0 -7.92,1.139 -12.61,3.418 l -2.07,-5.168 c 2.19,-1.193 4.6,-2.129 7.22,-2.807 2.62,-0.679 5.24,-1.018 7.87,-1.018 5.32,0 9.26,1.18 11.82,3.54 2.57,2.36 3.85,6.144 3.85,11.353 V 437.5 Z m -15.26,-4.761 c 4.21,0 7.51,-1.153 9.91,-3.458 2.4,-2.306 3.6,-5.534 3.6,-9.685 v -4.028 l -6.75,0.285 c -5.37,0.19 -9.25,1.024 -11.62,2.502 -2.37,1.479 -3.56,3.778 -3.56,6.897 0,2.442 0.74,4.3 2.22,5.575 1.48,1.275 3.54,1.912 6.2,1.912 z" />
    <rect
       id="rect50"
       style="fill:#546e7a;fill-rule:nonzero;fill-opacity:1"
       height="63.313999"
       width="6.7550001"
       y="374.186"
       x="1296.9399" />
    <path
       inkscape:connector-curvature="0"
       id="path52"
       style="fill:#546e7a;fill-rule:nonzero;fill-opacity:1"
       d="m 1310.94,392.904 h 7.24 l 9.77,25.431 c 2.14,5.805 3.47,9.996 3.99,12.573 h 0.32 c 0.35,-1.383 1.09,-3.75 2.22,-7.1 1.13,-3.35 4.81,-13.652 11.05,-30.904 h 7.24 l -19.17,50.781 c -1.9,5.018 -4.11,8.579 -6.65,10.681 -2.54,2.102 -5.65,3.154 -9.34,3.154 -2.06,0 -4.09,-0.231 -6.1,-0.692 v -5.412 c 1.49,0.326 3.16,0.488 5,0.488 4.64,0 7.95,-2.604 9.93,-7.812 l 2.48,-6.348 z" />
    <path
       inkscape:connector-curvature="0"
       id="path54"
       style="fill:#546e7a;fill-rule:nonzero;fill-opacity:1"
       d="m 1388.78,425.334 c 0,4.15 -1.55,7.351 -4.64,9.603 -3.09,2.251 -7.43,3.377 -13.02,3.377 -5.91,0 -10.52,-0.936 -13.83,-2.808 v -6.266 c 2.14,1.085 4.44,1.939 6.89,2.563 2.46,0.624 4.83,0.936 7.1,0.936 3.53,0 6.24,-0.563 8.14,-1.688 1.9,-1.126 2.85,-2.842 2.85,-5.148 0,-1.736 -0.75,-3.221 -2.26,-4.455 -1.5,-1.234 -4.44,-2.693 -8.81,-4.374 -4.15,-1.547 -7.1,-2.896 -8.85,-4.049 -1.75,-1.153 -3.05,-2.462 -3.9,-3.927 -0.86,-1.465 -1.29,-3.214 -1.29,-5.249 0,-3.635 1.48,-6.503 4.44,-8.606 2.96,-2.102 7.01,-3.153 12.17,-3.153 4.8,0 9.49,0.976 14.07,2.93 l -2.4,5.493 c -4.47,-1.845 -8.53,-2.767 -12.16,-2.767 -3.2,0 -5.62,0.502 -7.25,1.505 -1.62,1.004 -2.44,2.387 -2.44,4.151 0,1.193 0.31,2.211 0.92,3.051 0.61,0.841 1.59,1.642 2.95,2.401 1.36,0.76 3.96,1.858 7.81,3.296 5.29,1.926 8.86,3.866 10.72,5.819 1.86,1.953 2.79,4.408 2.79,7.365 z" />
    <path
       inkscape:connector-curvature="0"
       id="path56"
       style="fill:#546e7a;fill-rule:nonzero;fill-opacity:1"
       d="m 1406.52,437.5 h -6.75 v -44.596 h 6.75 z m -7.32,-56.681 c 0,-1.547 0.38,-2.679 1.14,-3.398 0.76,-0.719 1.71,-1.078 2.84,-1.078 1.09,0 2.02,0.366 2.81,1.098 0.79,0.733 1.18,1.859 1.18,3.378 0,1.519 -0.39,2.651 -1.18,3.397 -0.79,0.746 -1.72,1.119 -2.81,1.119 -1.13,0 -2.08,-0.373 -2.84,-1.119 -0.76,-0.746 -1.14,-1.878 -1.14,-3.397 z" />
    <path
       inkscape:connector-curvature="0"
       id="path58"
       style="fill:#546e7a;fill-rule:nonzero;fill-opacity:1"
       d="m 1449.61,425.334 c 0,4.15 -1.54,7.351 -4.64,9.603 -3.09,2.251 -7.43,3.377 -13.02,3.377 -5.91,0 -10.52,-0.936 -13.83,-2.808 v -6.266 c 2.14,1.085 4.44,1.939 6.9,2.563 2.45,0.624 4.82,0.936 7.1,0.936 3.52,0 6.23,-0.563 8.13,-1.688 1.9,-1.126 2.85,-2.842 2.85,-5.148 0,-1.736 -0.75,-3.221 -2.26,-4.455 -1.5,-1.234 -4.44,-2.693 -8.81,-4.374 -4.15,-1.547 -7.1,-2.896 -8.85,-4.049 -1.75,-1.153 -3.05,-2.462 -3.9,-3.927 -0.86,-1.465 -1.28,-3.214 -1.28,-5.249 0,-3.635 1.47,-6.503 4.43,-8.606 2.96,-2.102 7.01,-3.153 12.17,-3.153 4.8,0 9.49,0.976 14.08,2.93 l -2.4,5.493 c -4.48,-1.845 -8.54,-2.767 -12.17,-2.767 -3.2,0 -5.62,0.502 -7.24,1.505 -1.63,1.004 -2.45,2.387 -2.45,4.151 0,1.193 0.31,2.211 0.92,3.051 0.61,0.841 1.59,1.642 2.95,2.401 1.36,0.76 3.96,1.858 7.81,3.296 5.29,1.926 8.87,3.866 10.73,5.819 1.85,1.953 2.78,4.408 2.78,7.365 z" />
  </g>
  <g
     id="g68"
     transform="matrix(2.2812,0,0,2.63763,-582.319,-477.243)">
    <g
       transform="matrix(0.416972,0,0,0.360626,261.721,181.862)"
       id="SvgjsG3442">
      <path
         inkscape:connector-curvature="0"
         id="circle62"
         transform="matrix(1.0513075,0,0,1.0513059,-15.474136,-2.5669389)"
         d="M 62.279297,2.4414062 A 47.559826,47.559898 0 0 0 14.71875,50.001953 47.559826,47.559898 0 0 0 62.279297,97.560547 47.559826,47.559898 0 0 0 109.83789,50.001953 47.559826,47.559898 0 0 0 62.279297,2.4414062 Z M 61.324219,23.916016 c 6.773393,0 12.821726,5.644016 15.724609,14.755859 12.256616,2.09653 20.560547,6.692548 20.560547,12.175781 0,3.709246 -3.78855,7.176072 -10.642578,9.675782 -0.403178,0.161271 -0.887557,-0.07924 -1.048828,-0.482422 -0.161272,-0.403179 0.0812,-0.887557 0.484375,-1.048828 6.128308,-2.177167 9.595703,-5.161008 9.595703,-8.144532 0,-6.370226 -15.401905,-11.771484 -33.544922,-11.771484 -5.644494,0 -11.047185,0.564178 -15.804687,1.451172 -0.806357,2.983524 -1.291016,6.289078 -1.291016,9.675781 0,13.627446 7.177513,24.673828 15.966797,24.673828 6.692757,0 12.740249,-6.692289 14.998047,-16.449219 l -3.951172,-0.402343 5.644531,-7.822266 3.871094,8.789063 -4.033203,-0.402344 c -2.338434,10.643922 -9.029626,17.90039 -16.609375,17.90039 -9.676276,0 -17.580079,-11.772669 -17.580079,-26.287109 10e-7,-3.225431 0.403186,-6.370549 1.128907,-9.273437 -9.515005,2.09653 -15.964844,5.885622 -15.964844,9.998046 0,2.902888 3.466557,5.887287 9.433594,8.064454 l 0.484375,-1.53125 3.224609,3.546874 -4.675781,1.048829 0.484375,-1.533203 c -6.773393,-2.49971 -10.484375,-5.886458 -10.484375,-9.595704 0,-5.160689 7.258721,-9.513682 18.144531,-11.771484 2.741612,-9.031207 8.869466,-15.240234 15.884766,-15.240234 z m 0,1.613281 c -6.128308,0 -11.450353,5.32035 -14.111328,13.222656 4.596231,-0.806358 9.757011,-1.208984 15.240234,-1.208984 4.515595,0 8.869167,0.24219 12.820313,0.80664 -2.741612,-7.82167 -8.143454,-12.820312 -13.949219,-12.820312 z"
         style="fill:#546e7a;fill-opacity:1;stroke-width:0.95119727" />
    </g>
    <g
       transform="matrix(0.353479,0,0,0.305713,264.972,184.684)"
       id="SvgjsG3443" />
  </g>
</svg>
