<?xml version="1.0" encoding="UTF-8" standalone="no"?>
<svg
   xmlns:dc="http://purl.org/dc/elements/1.1/"
   xmlns:cc="http://creativecommons.org/ns#"
   xmlns:rdf="http://www.w3.org/1999/02/22-rdf-syntax-ns#"
   xmlns:svg="http://www.w3.org/2000/svg"
   xmlns="http://www.w3.org/2000/svg"
   xmlns:sodipodi="http://sodipodi.sourceforge.net/DTD/sodipodi-0.dtd"
   xmlns:inkscape="http://www.inkscape.org/namespaces/inkscape"
   width="105.11914"
   height="105.11914"
   viewBox="0 0 105.11915 105.11915"
   version="1.1"
   style="clip-rule:evenodd;fill-rule:evenodd;stroke-linejoin:round;stroke-miterlimit:1.41420996"
   id="svg72"
   sodipodi:docname="logo_cropped_doc.svg"
   inkscape:version="0.92.4 (f8dce91, 2019-08-02)">
  <metadata
     id="metadata78">
    <rdf:RDF>
      <cc:Work
         rdf:about="">
        <dc:format>image/svg+xml</dc:format>
        <dc:type
           rdf:resource="http://purl.org/dc/dcmitype/StillImage" />
        <dc:title></dc:title>
      </cc:Work>
    </rdf:RDF>
  </metadata>
  <defs
     id="defs76" />
  <sodipodi:namedview
     pagecolor="#ffffff"
     bordercolor="#666666"
     borderopacity="1"
     objecttolerance="10"
     gridtolerance="10"
     guidetolerance="10"
     inkscape:pageopacity="0"
     inkscape:pageshadow="2"
     inkscape:window-width="1920"
     inkscape:window-height="1043"
     id="namedview74"
     showgrid="false"
     inkscape:zoom="5.0346002"
     inkscape:cx="57.777496"
     inkscape:cy="38.818164"
     inkscape:window-x="1920"
     inkscape:window-y="0"
     inkscape:window-maximized="1"
     inkscape:current-layer="svg72"
     fit-margin-top="5"
     fit-margin-left="5"
     fit-margin-right="5"
     fit-margin-bottom="5"
     units="px" />
  <path
     inkscape:connector-curvature="0"
     id="circle62"
     d="M 52.56054,5 A 47.559826,47.559898 0 0 0 5,52.56055 47.559826,47.559898 0 0 0 52.56054,100.11914 47.559826,47.559898 0 0 0 100.11914,52.56055 47.559826,47.559898 0 0 0 52.56054,5 Z m -0.95507,21.47461 c 6.77339,0 12.82172,5.64402 15.72461,14.75586 12.25661,2.09653 20.56054,6.69255 20.56054,12.17578 0,3.70925 -3.78855,7.17607 -10.64258,9.67578 -0.40317,0.16127 -0.88755,-0.0792 -1.04882,-0.48242 -0.16128,-0.40318 0.0812,-0.88756 0.48437,-1.04883 6.12831,-2.17717 9.5957,-5.16101 9.5957,-8.14453 0,-6.37023 -15.4019,-11.77148 -33.54492,-11.77148 -5.64449,0 -11.04718,0.56417 -15.80468,1.45117 -0.80636,2.98352 -1.29102,6.28908 -1.29102,9.67578 0,13.62744 7.17751,24.67383 15.9668,24.67383 6.69275,0 12.74025,-6.69229 14.99804,-16.44922 l -3.95117,-0.40235 5.64453,-7.82226 3.8711,8.78906 -4.03321,-0.40234 c -2.33843,10.64392 -9.02962,17.90039 -16.60937,17.90039 -9.67628,0 -17.58008,-11.77267 -17.58008,-26.28711 0,-3.22543 0.40319,-6.37055 1.12891,-9.27344 -9.51501,2.09653 -15.96485,5.88562 -15.96485,9.99805 0,2.90289 3.46656,5.88728 9.4336,8.06445 l 0.48437,-1.53125 3.22461,3.54688 -4.67578,1.04882 0.48437,-1.5332 c -6.77339,-2.49971 -10.48437,-5.88646 -10.48437,-9.5957 0,-5.16069 7.25872,-9.51368 18.14453,-11.77149 2.74161,-9.0312 8.86947,-15.24023 15.88477,-15.24023 z m 0,1.61328 c -6.12831,0 -11.45036,5.32035 -14.11133,13.22266 4.59623,-0.80636 9.75701,-1.20899 15.24023,-1.20899 4.5156,0 8.86917,0.24219 12.82032,0.80664 C 62.81307,33.08653 57.41123,28.08789 51.60547,28.08789 Z"
     style="clip-rule:evenodd;fill:#546e7a;fill-opacity:1;fill-rule:evenodd;stroke-width:0.95119727;stroke-linejoin:round;stroke-miterlimit:1.41420996" />
</svg>
