<?xml version="1.0" encoding="UTF-8" standalone="no"?>
<svg
   xmlns:dc="http://purl.org/dc/elements/1.1/"
   xmlns:cc="http://creativecommons.org/ns#"
   xmlns:rdf="http://www.w3.org/1999/02/22-rdf-syntax-ns#"
   xmlns:svg="http://www.w3.org/2000/svg"
   xmlns="http://www.w3.org/2000/svg"
   xmlns:sodipodi="http://sodipodi.sourceforge.net/DTD/sodipodi-0.dtd"
   xmlns:inkscape="http://www.inkscape.org/namespaces/inkscape"
   width="100%"
   height="100%"
   viewBox="0 0 1920 1080"
   version="1.1"
   xml:space="preserve"
   style="fill-rule:evenodd;clip-rule:evenodd;stroke-linejoin:round;stroke-miterlimit:1.41421;"
   id="svg22"
   sodipodi:docname="dark_nord_wallpaper.svg"
   inkscape:version="0.92.3 (2405546, 2018-03-11)"
   inkscape:export-filename="/home/romain/Documents/codes/design/wallpaper/dark_nord_wallpaper.svg.png"
   inkscape:export-xdpi="96"
   inkscape:export-ydpi="96"><metadata
   id="metadata28"><rdf:RDF><cc:Work
       rdf:about=""><dc:format>image/svg+xml</dc:format><dc:type
         rdf:resource="http://purl.org/dc/dcmitype/StillImage" /></cc:Work></rdf:RDF></metadata><defs
   id="defs26" /><sodipodi:namedview
   pagecolor="#ffffff"
   bordercolor="#666666"
   borderopacity="1"
   objecttolerance="10"
   gridtolerance="10"
   guidetolerance="10"
   inkscape:pageopacity="0"
   inkscape:pageshadow="2"
   inkscape:window-width="1920"
   inkscape:window-height="984"
   id="namedview24"
   showgrid="false"
   inkscape:zoom="1.0076272"
   inkscape:cx="889.59377"
   inkscape:cy="600.01839"
   inkscape:window-x="1920"
   inkscape:window-y="27"
   inkscape:window-maximized="1"
   inkscape:current-layer="svg22" />
    <path
   style="fill:#2e3440;fill-opacity:1"
   d="M 0,0 H 1920 V 1080 H 0 Z"
   id="rect2" />
    <g
   transform="matrix(3.91976,0,0,4.5322,-387.688,-365.957)"
   id="g20">
        <g
   transform="matrix(0.0920677,0,0,0.0796265,258.965,170.714)"
   id="g6">
            <text
   x="558.13202"
   y="442.95212"
   style="font-size:300px;font-family:OpenSans, 'Open Sans', sans-serif;fill:#eceff4;fill-opacity:1"
   id="text4"><tspan
     style="font-style:normal;font-variant:normal;font-weight:normal;font-stretch:normal;font-family:Rubik;-inkscape-font-specification:Rubik"
     id="tspan825">Pyomeca</tspan></text>



        </g>
        <g
   transform="matrix(0.0920677,0,0,0.0796265,291.578,181.494)"
   id="g10">
            <text
   x="573.81989"
   y="437.5"
   style="font-size:83.33300018px;font-family:OpenSans, 'Open Sans', sans-serif;fill:#88c0d0;fill-opacity:1"
   id="text8"><tspan
     style="font-style:normal;font-variant:normal;font-weight:normal;font-stretch:normal;font-family:rubik;-inkscape-font-specification:rubik"
     id="tspan827">Biomechanical analysis</tspan></text>



        </g>
        <g
   transform="matrix(1,0,0,1,0.876731,4.05009e-13)"
   id="g18">
            <g
   id="SvgjsG3442"
   transform="matrix(0.416972,0,0,0.360626,261.721,181.862)">
                <circle
   cx="50"
   cy="50"
   r="50"
   style="fill:#88c0d0;fill-opacity:1"
   id="circle12" />
            </g>
            <g
   id="SvgjsG3443"
   transform="matrix(0.353479,0,0,0.305713,264.972,184.684)">
                <path
   d="M68.1,35.7C64.5,24.4 57,17.4 48.6,17.4C39.9,17.4 32.3,25.1 28.9,36.3C15.4,39.1 6.4,44.5 6.4,50.9C6.4,55.5 11,59.7 19.4,62.8L18.8,64.7L24.6,63.4L20.6,59L20,60.9C12.6,58.2 8.3,54.5 8.3,50.9C8.3,45.8 16.3,41.1 28.1,38.5C27.2,42.1 26.7,46 26.7,50C26.7,68 36.5,82.6 48.5,82.6C57.9,82.6 66.2,73.6 69.1,60.4L74.1,60.9L69.3,50L62.3,59.7L67.2,60.2C64.4,72.3 56.9,80.6 48.6,80.6C37.7,80.6 28.8,66.9 28.8,50C28.8,45.8 29.4,41.7 30.4,38C36.3,36.9 43,36.2 50,36.2C72.5,36.2 91.6,42.9 91.6,50.8C91.6,54.5 87.3,58.2 79.7,60.9C79.2,61.1 78.9,61.7 79.1,62.2C79.3,62.7 79.9,63 80.4,62.8C88.9,59.7 93.6,55.4 93.6,50.8C93.6,44 83.3,38.3 68.1,35.7ZM31.1,35.8C34.4,26 41,19.4 48.6,19.4C55.8,19.4 62.5,25.6 65.9,35.3C61,34.6 55.6,34.3 50,34.3C43.2,34.3 36.8,34.8 31.1,35.8Z"
   style="fill:rgb(58,63,75);fill-rule:nonzero;"
   id="path15" />
            </g>
        </g>
    </g>
</svg>